<?xml version="1.0" encoding="utf-8" standalone="no"?>
<!DOCTYPE svg PUBLIC "-//W3C//DTD SVG 1.1//EN"
  "http://www.w3.org/Graphics/SVG/1.1/DTD/svg11.dtd">
<!-- Created with matplotlib (https://matplotlib.org/) -->
<svg height="269.866719pt" version="1.1" viewBox="0 0 289.613437 269.866719" width="289.613437pt" xmlns="http://www.w3.org/2000/svg" xmlns:xlink="http://www.w3.org/1999/xlink">
 <metadata>
  <rdf:RDF xmlns:cc="http://creativecommons.org/ns#" xmlns:dc="http://purl.org/dc/elements/1.1/" xmlns:rdf="http://www.w3.org/1999/02/22-rdf-syntax-ns#">
   <cc:Work>
    <dc:type rdf:resource="http://purl.org/dc/dcmitype/StillImage"/>
    <dc:date>2020-09-13T01:24:06.399489</dc:date>
    <dc:format>image/svg+xml</dc:format>
    <dc:creator>
     <cc:Agent>
      <dc:title>Matplotlib v3.3.1, https://matplotlib.org/</dc:title>
     </cc:Agent>
    </dc:creator>
   </cc:Work>
  </rdf:RDF>
 </metadata>
 <defs>
  <style type="text/css">*{stroke-linecap:butt;stroke-linejoin:round;}</style>
 </defs>
 <g id="figure_1">
  <g id="patch_1">
   <path d="M 0 269.866719 
L 289.613437 269.866719 
L 289.613437 0 
L 0 0 
z
" style="fill:none;"/>
  </g>
  <g id="axes_1">
   <g id="patch_2">
    <path d="M 56.032187 228.439219 
L 279.232188 228.439219 
L 279.232188 10.999219 
L 56.032187 10.999219 
z
" style="fill:#ffffff;"/>
   </g>
   <g id="matplotlib.axis_1">
    <g id="xtick_1">
     <g id="line2d_1">
      <defs>
       <path d="M 0 0 
L 0 3.5 
" id="m6dd783e02d" style="stroke:#000000;stroke-width:0.8;"/>
      </defs>
      <g>
       <use style="stroke:#000000;stroke-width:0.8;" x="56.032188" xlink:href="#m6dd783e02d" y="228.439219"/>
      </g>
     </g>
     <g id="text_1">
      <!-- −2 -->
      <g transform="translate(48.661094 243.037656)scale(0.1 -0.1)">
       <defs>
        <path d="M 10.59375 35.5 
L 73.1875 35.5 
L 73.1875 27.203125 
L 10.59375 27.203125 
z
" id="DejaVuSans-8722"/>
        <path d="M 19.1875 8.296875 
L 53.609375 8.296875 
L 53.609375 0 
L 7.328125 0 
L 7.328125 8.296875 
Q 12.9375 14.109375 22.625 23.890625 
Q 32.328125 33.6875 34.8125 36.53125 
Q 39.546875 41.84375 41.421875 45.53125 
Q 43.3125 49.21875 43.3125 52.78125 
Q 43.3125 58.59375 39.234375 62.25 
Q 35.15625 65.921875 28.609375 65.921875 
Q 23.96875 65.921875 18.8125 64.3125 
Q 13.671875 62.703125 7.8125 59.421875 
L 7.8125 69.390625 
Q 13.765625 71.78125 18.9375 73 
Q 24.125 74.21875 28.421875 74.21875 
Q 39.75 74.21875 46.484375 68.546875 
Q 53.21875 62.890625 53.21875 53.421875 
Q 53.21875 48.921875 51.53125 44.890625 
Q 49.859375 40.875 45.40625 35.40625 
Q 44.1875 33.984375 37.640625 27.21875 
Q 31.109375 20.453125 19.1875 8.296875 
z
" id="DejaVuSans-50"/>
       </defs>
       <use xlink:href="#DejaVuSans-8722"/>
       <use x="83.789062" xlink:href="#DejaVuSans-50"/>
      </g>
     </g>
    </g>
    <g id="xtick_2">
     <g id="line2d_2">
      <g>
       <use style="stroke:#000000;stroke-width:0.8;" x="111.832188" xlink:href="#m6dd783e02d" y="228.439219"/>
      </g>
     </g>
     <g id="text_2">
      <!-- −1 -->
      <g transform="translate(104.461094 243.037656)scale(0.1 -0.1)">
       <defs>
        <path d="M 12.40625 8.296875 
L 28.515625 8.296875 
L 28.515625 63.921875 
L 10.984375 60.40625 
L 10.984375 69.390625 
L 28.421875 72.90625 
L 38.28125 72.90625 
L 38.28125 8.296875 
L 54.390625 8.296875 
L 54.390625 0 
L 12.40625 0 
z
" id="DejaVuSans-49"/>
       </defs>
       <use xlink:href="#DejaVuSans-8722"/>
       <use x="83.789062" xlink:href="#DejaVuSans-49"/>
      </g>
     </g>
    </g>
    <g id="xtick_3">
     <g id="line2d_3">
      <g>
       <use style="stroke:#000000;stroke-width:0.8;" x="167.632188" xlink:href="#m6dd783e02d" y="228.439219"/>
      </g>
     </g>
     <g id="text_3">
      <!-- 0 -->
      <g transform="translate(164.450938 243.037656)scale(0.1 -0.1)">
       <defs>
        <path d="M 31.78125 66.40625 
Q 24.171875 66.40625 20.328125 58.90625 
Q 16.5 51.421875 16.5 36.375 
Q 16.5 21.390625 20.328125 13.890625 
Q 24.171875 6.390625 31.78125 6.390625 
Q 39.453125 6.390625 43.28125 13.890625 
Q 47.125 21.390625 47.125 36.375 
Q 47.125 51.421875 43.28125 58.90625 
Q 39.453125 66.40625 31.78125 66.40625 
z
M 31.78125 74.21875 
Q 44.046875 74.21875 50.515625 64.515625 
Q 56.984375 54.828125 56.984375 36.375 
Q 56.984375 17.96875 50.515625 8.265625 
Q 44.046875 -1.421875 31.78125 -1.421875 
Q 19.53125 -1.421875 13.0625 8.265625 
Q 6.59375 17.96875 6.59375 36.375 
Q 6.59375 54.828125 13.0625 64.515625 
Q 19.53125 74.21875 31.78125 74.21875 
z
" id="DejaVuSans-48"/>
       </defs>
       <use xlink:href="#DejaVuSans-48"/>
      </g>
     </g>
    </g>
    <g id="xtick_4">
     <g id="line2d_4">
      <g>
       <use style="stroke:#000000;stroke-width:0.8;" x="223.432188" xlink:href="#m6dd783e02d" y="228.439219"/>
      </g>
     </g>
     <g id="text_4">
      <!-- 1 -->
      <g transform="translate(220.250938 243.037656)scale(0.1 -0.1)">
       <use xlink:href="#DejaVuSans-49"/>
      </g>
     </g>
    </g>
    <g id="xtick_5">
     <g id="line2d_5">
      <g>
       <use style="stroke:#000000;stroke-width:0.8;" x="279.232188" xlink:href="#m6dd783e02d" y="228.439219"/>
      </g>
     </g>
     <g id="text_5">
      <!-- 2 -->
      <g transform="translate(276.050938 243.037656)scale(0.1 -0.1)">
       <use xlink:href="#DejaVuSans-50"/>
      </g>
     </g>
    </g>
    <g id="text_6">
     <!-- $x_0$ -->
     <g transform="translate(160.142188 259.755156)scale(0.14 -0.14)">
      <defs>
       <path d="M 60.015625 54.6875 
L 34.90625 27.875 
L 50.296875 0 
L 39.984375 0 
L 28.421875 21.6875 
L 8.296875 0 
L -2.59375 0 
L 24.3125 28.8125 
L 10.015625 54.6875 
L 20.3125 54.6875 
L 30.8125 34.90625 
L 49.125 54.6875 
z
" id="DejaVuSans-Oblique-120"/>
      </defs>
      <use transform="translate(0 0.3125)" xlink:href="#DejaVuSans-Oblique-120"/>
      <use transform="translate(59.179688 -16.09375)scale(0.7)" xlink:href="#DejaVuSans-48"/>
     </g>
    </g>
   </g>
   <g id="matplotlib.axis_2">
    <g id="ytick_1">
     <g id="line2d_6">
      <defs>
       <path d="M 0 0 
L -3.5 0 
" id="mec57411b16" style="stroke:#000000;stroke-width:0.8;"/>
      </defs>
      <g>
       <use style="stroke:#000000;stroke-width:0.8;" x="56.032187" xlink:href="#mec57411b16" y="228.439219"/>
      </g>
     </g>
     <g id="text_7">
      <!-- −2.0 -->
      <g transform="translate(24.749375 232.238438)scale(0.1 -0.1)">
       <defs>
        <path d="M 10.6875 12.40625 
L 21 12.40625 
L 21 0 
L 10.6875 0 
z
" id="DejaVuSans-46"/>
       </defs>
       <use xlink:href="#DejaVuSans-8722"/>
       <use x="83.789062" xlink:href="#DejaVuSans-50"/>
       <use x="147.412109" xlink:href="#DejaVuSans-46"/>
       <use x="179.199219" xlink:href="#DejaVuSans-48"/>
      </g>
     </g>
    </g>
    <g id="ytick_2">
     <g id="line2d_7">
      <g>
       <use style="stroke:#000000;stroke-width:0.8;" x="56.032187" xlink:href="#mec57411b16" y="201.259219"/>
      </g>
     </g>
     <g id="text_8">
      <!-- −1.5 -->
      <g transform="translate(24.749375 205.058437)scale(0.1 -0.1)">
       <defs>
        <path d="M 10.796875 72.90625 
L 49.515625 72.90625 
L 49.515625 64.59375 
L 19.828125 64.59375 
L 19.828125 46.734375 
Q 21.96875 47.46875 24.109375 47.828125 
Q 26.265625 48.1875 28.421875 48.1875 
Q 40.625 48.1875 47.75 41.5 
Q 54.890625 34.8125 54.890625 23.390625 
Q 54.890625 11.625 47.5625 5.09375 
Q 40.234375 -1.421875 26.90625 -1.421875 
Q 22.3125 -1.421875 17.546875 -0.640625 
Q 12.796875 0.140625 7.71875 1.703125 
L 7.71875 11.625 
Q 12.109375 9.234375 16.796875 8.0625 
Q 21.484375 6.890625 26.703125 6.890625 
Q 35.15625 6.890625 40.078125 11.328125 
Q 45.015625 15.765625 45.015625 23.390625 
Q 45.015625 31 40.078125 35.4375 
Q 35.15625 39.890625 26.703125 39.890625 
Q 22.75 39.890625 18.8125 39.015625 
Q 14.890625 38.140625 10.796875 36.28125 
z
" id="DejaVuSans-53"/>
       </defs>
       <use xlink:href="#DejaVuSans-8722"/>
       <use x="83.789062" xlink:href="#DejaVuSans-49"/>
       <use x="147.412109" xlink:href="#DejaVuSans-46"/>
       <use x="179.199219" xlink:href="#DejaVuSans-53"/>
      </g>
     </g>
    </g>
    <g id="ytick_3">
     <g id="line2d_8">
      <g>
       <use style="stroke:#000000;stroke-width:0.8;" x="56.032187" xlink:href="#mec57411b16" y="174.079219"/>
      </g>
     </g>
     <g id="text_9">
      <!-- −1.0 -->
      <g transform="translate(24.749375 177.878438)scale(0.1 -0.1)">
       <use xlink:href="#DejaVuSans-8722"/>
       <use x="83.789062" xlink:href="#DejaVuSans-49"/>
       <use x="147.412109" xlink:href="#DejaVuSans-46"/>
       <use x="179.199219" xlink:href="#DejaVuSans-48"/>
      </g>
     </g>
    </g>
    <g id="ytick_4">
     <g id="line2d_9">
      <g>
       <use style="stroke:#000000;stroke-width:0.8;" x="56.032187" xlink:href="#mec57411b16" y="146.899219"/>
      </g>
     </g>
     <g id="text_10">
      <!-- −0.5 -->
      <g transform="translate(24.749375 150.698438)scale(0.1 -0.1)">
       <use xlink:href="#DejaVuSans-8722"/>
       <use x="83.789062" xlink:href="#DejaVuSans-48"/>
       <use x="147.412109" xlink:href="#DejaVuSans-46"/>
       <use x="179.199219" xlink:href="#DejaVuSans-53"/>
      </g>
     </g>
    </g>
    <g id="ytick_5">
     <g id="line2d_10">
      <g>
       <use style="stroke:#000000;stroke-width:0.8;" x="56.032187" xlink:href="#mec57411b16" y="119.719219"/>
      </g>
     </g>
     <g id="text_11">
      <!-- 0.0 -->
      <g transform="translate(33.129062 123.518438)scale(0.1 -0.1)">
       <use xlink:href="#DejaVuSans-48"/>
       <use x="63.623047" xlink:href="#DejaVuSans-46"/>
       <use x="95.410156" xlink:href="#DejaVuSans-48"/>
      </g>
     </g>
    </g>
    <g id="ytick_6">
     <g id="line2d_11">
      <g>
       <use style="stroke:#000000;stroke-width:0.8;" x="56.032187" xlink:href="#mec57411b16" y="92.539219"/>
      </g>
     </g>
     <g id="text_12">
      <!-- 0.5 -->
      <g transform="translate(33.129062 96.338437)scale(0.1 -0.1)">
       <use xlink:href="#DejaVuSans-48"/>
       <use x="63.623047" xlink:href="#DejaVuSans-46"/>
       <use x="95.410156" xlink:href="#DejaVuSans-53"/>
      </g>
     </g>
    </g>
    <g id="ytick_7">
     <g id="line2d_12">
      <g>
       <use style="stroke:#000000;stroke-width:0.8;" x="56.032187" xlink:href="#mec57411b16" y="65.359219"/>
      </g>
     </g>
     <g id="text_13">
      <!-- 1.0 -->
      <g transform="translate(33.129062 69.158438)scale(0.1 -0.1)">
       <use xlink:href="#DejaVuSans-49"/>
       <use x="63.623047" xlink:href="#DejaVuSans-46"/>
       <use x="95.410156" xlink:href="#DejaVuSans-48"/>
      </g>
     </g>
    </g>
    <g id="ytick_8">
     <g id="line2d_13">
      <g>
       <use style="stroke:#000000;stroke-width:0.8;" x="56.032187" xlink:href="#mec57411b16" y="38.179219"/>
      </g>
     </g>
     <g id="text_14">
      <!-- 1.5 -->
      <g transform="translate(33.129062 41.978438)scale(0.1 -0.1)">
       <use xlink:href="#DejaVuSans-49"/>
       <use x="63.623047" xlink:href="#DejaVuSans-46"/>
       <use x="95.410156" xlink:href="#DejaVuSans-53"/>
      </g>
     </g>
    </g>
    <g id="ytick_9">
     <g id="line2d_14">
      <g>
       <use style="stroke:#000000;stroke-width:0.8;" x="56.032187" xlink:href="#mec57411b16" y="10.999219"/>
      </g>
     </g>
     <g id="text_15">
      <!-- 2.0 -->
      <g transform="translate(33.129062 14.798438)scale(0.1 -0.1)">
       <use xlink:href="#DejaVuSans-50"/>
       <use x="63.623047" xlink:href="#DejaVuSans-46"/>
       <use x="95.410156" xlink:href="#DejaVuSans-48"/>
      </g>
     </g>
    </g>
    <g id="text_16">
     <!-- $x_1$ -->
     <g transform="translate(17.837812 127.209219)rotate(-90)scale(0.14 -0.14)">
      <use transform="translate(0 0.3125)" xlink:href="#DejaVuSans-Oblique-120"/>
      <use transform="translate(59.179688 -16.09375)scale(0.7)" xlink:href="#DejaVuSans-49"/>
     </g>
    </g>
   </g>
   <g id="LineCollection_1"/>
   <g id="LineCollection_2">
    <path clip-path="url(#p5a643dac73)" d="M 147.846749 194.317946 
L 151.68933 194.780093 
L 156.244432 195.178384 
L 160.799534 195.438153 
L 165.354636 195.566356 
L 169.909739 195.566356 
L 174.464841 195.438153 
L 179.019943 195.178384 
L 183.575045 194.780093 
L 188.130147 194.232251 
L 195.676256 192.938811 
L 197.240351 192.683602 
L 201.795453 191.799006 
L 206.350555 190.722228 
L 210.905657 189.417116 
L 220.015861 186.412894 
L 229.126065 182.585937 
L 234.92496 179.626158 
L 238.236269 177.853966 
L 242.791371 175.005203 
L 248.920321 170.751055 
L 251.901575 168.416825 
L 256.456677 164.390653 
L 259.037991 161.875953 
L 263.045501 157.438402 
L 266.44093 153.000851 
L 269.337925 148.5633 
L 271.791806 144.125749 
L 273.744169 139.688198 
L 275.28097 135.250647 
L 276.479516 130.813096 
L 277.243877 126.375545 
L 277.616206 121.937994 
L 277.616206 117.500443 
L 277.243877 113.062892 
L 276.479516 108.625341 
L 275.28097 104.18779 
L 273.744169 99.750239 
L 271.791806 95.312688 
L 269.337925 90.875137 
L 265.566881 85.296708 
L 263.045501 82.000035 
L 259.037991 77.562484 
L 254.369786 73.124933 
L 251.901575 71.021612 
L 247.346473 67.507436 
L 242.499029 64.249831 
L 238.236269 61.584472 
L 233.681167 59.125721 
L 229.126065 56.8525 
L 220.015861 53.025543 
L 210.905657 50.021321 
L 206.350555 48.71621 
L 201.795453 47.639431 
L 192.685249 45.919437 
L 188.130147 45.206187 
L 183.575045 44.658344 
L 179.019943 44.260053 
L 174.464841 44.000285 
L 169.909739 43.872082 
L 165.354636 43.872082 
L 160.799534 44.000285 
L 156.244432 44.260053 
L 151.68933 44.658344 
L 147.134228 45.206187 
L 139.588119 46.499627 
L 138.024024 46.754835 
L 133.468922 47.639431 
L 128.91382 48.71621 
L 124.358718 50.021321 
L 115.248514 53.025543 
L 106.13831 56.8525 
L 100.339415 59.81228 
L 97.028106 61.584472 
L 92.473004 64.433234 
L 86.344054 68.687382 
L 83.3628 71.021612 
L 78.807698 75.047784 
L 76.226384 77.562484 
L 72.218874 82.000035 
L 68.823445 86.437586 
L 65.92645 90.875137 
L 63.472569 95.312688 
L 61.520206 99.750239 
L 59.983405 104.18779 
L 58.784859 108.625341 
L 58.020498 113.062892 
L 57.648169 117.500443 
L 57.648169 121.937994 
L 58.020498 126.375545 
L 58.784859 130.813096 
L 59.983405 135.250647 
L 61.520206 139.688198 
L 63.472569 144.125749 
L 65.92645 148.5633 
L 69.697494 154.14173 
L 72.218874 157.438402 
L 76.226384 161.875953 
L 80.894589 166.313504 
L 83.3628 168.416825 
L 87.917902 171.931001 
L 92.765346 175.188607 
L 97.028106 177.853966 
L 101.583208 180.312716 
L 106.13831 182.585937 
L 115.248514 186.412894 
L 119.426834 187.832281 
L 119.426834 187.832281 
" style="fill:none;stroke:#6495ed;stroke-width:1.5;"/>
    <path clip-path="url(#p5a643dac73)" d="M 152.964186 124.225897 
L 151.68933 122.336424 
L 151.479047 121.937994 
L 151.479047 117.500443 
L 151.68933 117.102013 
L 154.414586 113.062892 
L 156.244432 111.707266 
L 160.799534 109.500629 
L 164.548004 108.625341 
L 165.354636 108.484898 
L 169.909739 108.484898 
L 170.716371 108.625341 
L 174.464841 109.500629 
L 179.019943 111.707266 
L 180.849789 113.062892 
L 183.575045 117.102013 
L 183.785328 117.500443 
L 183.785328 121.937994 
L 183.575045 122.336424 
L 180.849789 126.375545 
L 179.273358 127.543431 
" style="fill:none;stroke:#6495ed;stroke-width:1.5;"/>
   </g>
   <g id="LineCollection_3">
    <path clip-path="url(#p5a643dac73)" d="M 202.409962 180.614445 
L 210.905657 177.987468 
L 215.460759 176.263421 
L 220.015861 174.299715 
L 224.570963 172.09898 
L 229.126065 169.580958 
L 234.284602 166.313504 
L 238.236269 163.472612 
L 240.258889 161.875953 
L 242.791371 159.696691 
L 245.238118 157.438402 
L 249.411042 153.000851 
L 252.884125 148.5633 
L 255.750122 144.125749 
L 258.095632 139.688198 
L 259.903864 135.250647 
L 261.221447 130.813096 
L 262.131845 126.375545 
L 262.577736 121.937994 
L 262.577736 117.500443 
L 262.131845 113.062892 
L 261.011779 107.944803 
L 259.903864 104.18779 
L 258.095632 99.750239 
L 255.750122 95.312688 
L 252.884125 90.875137 
L 249.411042 86.437586 
L 245.238118 82.000035 
L 242.791371 79.741747 
L 238.236269 75.965825 
L 233.681167 72.714711 
L 229.126065 69.857479 
L 224.570963 67.339458 
L 217.945284 64.249831 
L 215.460759 63.175016 
L 210.905657 61.450969 
L 205.740567 59.81228 
L 201.795453 58.64165 
L 197.240351 57.510936 
L 192.685249 56.580943 
L 188.130147 55.82994 
L 179.019943 54.745904 
L 174.464841 54.430772 
L 169.909739 54.274887 
L 165.354636 54.274887 
L 160.799534 54.430772 
L 156.244432 54.745904 
L 150.648147 55.374729 
L 147.134228 55.82994 
L 142.579126 56.580943 
L 138.024024 57.510936 
L 133.468922 58.64165 
L 124.358718 61.450969 
L 119.803616 63.175016 
L 115.248514 65.138722 
L 110.693412 67.339458 
L 106.13831 69.857479 
L 100.979773 73.124933 
L 97.028106 75.965825 
L 95.005486 77.562484 
L 92.473004 79.741747 
L 90.026257 82.000035 
L 85.853333 86.437586 
L 82.38025 90.875137 
L 79.514253 95.312688 
L 77.168743 99.750239 
L 75.360511 104.18779 
L 74.042928 108.625341 
L 73.13253 113.062892 
L 72.686639 117.500443 
L 72.686639 121.937994 
L 73.13253 126.375545 
L 74.252596 131.493634 
L 75.360511 135.250647 
L 77.168743 139.688198 
L 79.514253 144.125749 
L 82.38025 148.5633 
L 85.853333 153.000851 
L 90.026257 157.438402 
L 92.473004 159.696691 
L 97.028106 163.472612 
L 101.583208 166.723726 
L 106.13831 169.580958 
L 110.693412 172.09898 
L 117.319091 175.188607 
L 119.803616 176.263421 
L 124.358718 177.987468 
L 129.523808 179.626158 
L 133.468922 180.796788 
L 138.024024 181.927501 
L 142.579126 182.857495 
L 147.134228 183.608498 
L 156.244432 184.692533 
L 160.799534 185.007665 
L 165.354636 185.16355 
L 169.909739 185.16355 
L 173.606652 185.037034 
L 173.606652 185.037034 
" style="fill:none;stroke:#6495ed;stroke-width:1.5;"/>
    <path clip-path="url(#p5a643dac73)" d="M 156.649759 104.607785 
L 158.022956 104.18779 
L 160.799534 103.448537 
L 165.354636 102.855906 
L 169.909739 102.855906 
L 174.464841 103.448537 
L 177.241419 104.18779 
L 179.019943 104.731754 
L 183.575045 106.901091 
L 186.152947 108.625341 
L 188.130147 110.551516 
L 190.223021 113.062892 
L 192.005109 117.500443 
L 192.005109 121.937994 
L 190.223021 126.375545 
L 188.130147 128.886921 
L 186.152947 130.813096 
L 183.575045 132.537346 
L 179.019943 134.706683 
L 177.241419 135.250647 
L 174.464841 135.9899 
L 169.909739 136.582531 
L 165.354636 136.582531 
L 160.799534 135.9899 
L 158.022956 135.250647 
L 156.244432 134.706683 
L 151.68933 132.537346 
L 149.111428 130.813096 
L 147.134228 128.886921 
L 145.424455 126.835254 
" style="fill:none;stroke:#6495ed;stroke-width:1.5;"/>
   </g>
   <g id="LineCollection_4">
    <path clip-path="url(#p5a643dac73)" d="M 94.558655 92.279106 
L 92.473004 95.002833 
L 92.246581 95.312688 
L 89.552236 99.750239 
L 87.917902 103.167387 
L 87.444893 104.18779 
L 85.912063 108.625341 
L 84.904971 113.062892 
L 84.404402 117.500443 
L 84.404402 121.937994 
L 84.904971 126.375545 
L 85.912063 130.813096 
L 87.444893 135.250647 
L 87.917902 136.27105 
L 89.552236 139.688198 
L 92.246581 144.125749 
L 92.473004 144.435604 
L 95.633721 148.5633 
L 97.028106 150.111083 
L 99.793326 153.000851 
L 101.583208 154.63797 
L 104.876694 157.438402 
L 106.13831 158.40044 
L 110.693412 161.590562 
L 111.134568 161.875953 
L 115.248514 164.304005 
L 119.038453 166.313504 
L 119.803616 166.693259 
L 124.358718 168.727524 
L 128.91382 170.51792 
L 129.577921 170.751055 
L 133.468922 172.043809 
L 138.024024 173.337038 
L 142.579126 174.430162 
L 146.378849 175.188607 
L 147.134228 175.335307 
L 151.68933 176.03882 
L 156.244432 176.558607 
L 160.799534 176.901918 
L 165.354636 177.072721 
L 169.909739 177.072721 
L 174.464841 176.901918 
L 179.019943 176.558607 
L 183.575045 176.03882 
L 188.130147 175.335307 
L 188.885526 175.188607 
L 192.685249 174.430162 
L 197.240351 173.337038 
L 201.795453 172.043809 
L 205.686454 170.751055 
L 206.350555 170.51792 
L 210.905657 168.727524 
L 215.460759 166.693259 
L 216.225922 166.313504 
L 220.015861 164.304005 
L 224.129807 161.875953 
L 224.570963 161.590562 
L 229.126065 158.40044 
L 230.387681 157.438402 
L 233.681167 154.63797 
L 235.471049 153.000851 
L 238.236269 150.111083 
L 239.630654 148.5633 
L 242.791371 144.435604 
L 243.017794 144.125749 
L 245.712139 139.688198 
L 247.346473 136.27105 
L 247.819482 135.250647 
L 249.352312 130.813096 
L 250.359404 126.375545 
L 250.859973 121.937994 
L 250.859973 117.500443 
L 250.359404 113.062892 
L 249.352312 108.625341 
L 247.819482 104.18779 
L 247.346473 103.167387 
L 245.712139 99.750239 
L 243.017794 95.312688 
L 242.791371 95.002833 
L 239.630654 90.875137 
L 238.236269 89.327355 
L 235.471049 86.437586 
L 233.681167 84.800467 
L 230.387681 82.000035 
L 229.126065 81.037997 
L 224.570963 77.847876 
L 224.129807 77.562484 
L 220.015861 75.134433 
L 216.225922 73.124933 
L 215.460759 72.745179 
L 210.905657 70.710913 
L 206.350555 68.920518 
L 205.686454 68.687382 
L 201.795453 67.394628 
L 197.240351 66.1014 
L 192.685249 65.008275 
L 188.885526 64.249831 
L 188.130147 64.10313 
L 183.575045 63.399617 
L 179.019943 62.879831 
L 174.464841 62.536519 
L 169.909739 62.365717 
L 165.354636 62.365717 
L 160.799534 62.536519 
L 156.244432 62.879831 
L 151.68933 63.399617 
L 147.134228 64.10313 
L 146.378849 64.249831 
L 142.579126 65.008275 
L 138.024024 66.1014 
L 133.468922 67.394628 
L 129.577921 68.687382 
L 128.91382 68.920518 
L 124.358718 70.710913 
L 119.803616 72.745179 
L 119.038453 73.124933 
L 117.147923 74.127329 
" style="fill:none;stroke:#6495ed;stroke-width:1.5;"/>
    <path clip-path="url(#p5a643dac73)" d="M 199.30617 115.662885 
L 199.855622 117.500443 
L 199.855622 121.937994 
L 198.528742 126.375545 
L 197.240351 128.465653 
L 195.687392 130.813096 
L 192.685249 133.737765 
L 190.789936 135.250647 
L 188.130147 136.951718 
L 183.575045 139.103065 
L 181.83384 139.688198 
L 179.019943 140.611855 
L 174.464841 141.560801 
L 169.909739 142.011253 
L 165.354636 142.011253 
L 160.799534 141.560801 
L 156.244432 140.611855 
L 153.430535 139.688198 
L 151.68933 139.103065 
L 147.134228 136.951718 
L 144.474439 135.250647 
L 142.579126 133.737765 
L 139.576983 130.813096 
L 138.024024 128.465653 
L 136.735633 126.375545 
L 135.408753 121.937994 
L 135.408753 117.500443 
L 136.735633 113.062892 
L 138.024024 110.972785 
L 139.576983 108.625341 
L 142.579126 105.700672 
L 144.474439 104.18779 
L 147.134228 102.486719 
L 151.68933 100.335373 
L 153.430535 99.750239 
L 156.244432 98.826583 
L 160.799534 97.877636 
L 165.354636 97.427185 
L 169.909739 97.427185 
L 174.464841 97.877636 
L 177.447036 98.498905 
" style="fill:none;stroke:#6495ed;stroke-width:1.5;"/>
   </g>
   <g id="LineCollection_5">
    <path clip-path="url(#p5a643dac73)" d="M 147.486586 166.665637 
L 151.68933 167.370857 
L 156.244432 167.950424 
L 160.799534 168.341864 
L 165.354636 168.539593 
L 169.909739 168.539593 
L 174.464841 168.341864 
L 179.019943 167.950424 
L 183.575045 167.370857 
L 188.130147 166.606512 
L 189.513955 166.313504 
L 192.685249 165.478275 
L 197.240351 164.122506 
L 201.795453 162.620966 
L 203.775402 161.875953 
L 206.350555 160.703722 
L 210.905657 158.506636 
L 212.928924 157.438402 
L 215.460759 155.852425 
L 219.815244 153.000851 
L 220.015861 152.844479 
L 224.570963 149.031658 
L 225.090054 148.5633 
L 229.126065 144.31789 
L 229.294285 144.125749 
L 232.499992 139.688198 
L 233.681167 137.732947 
L 235.008086 135.250647 
L 236.816528 130.813096 
L 238.085482 126.375545 
L 238.236269 125.347332 
L 238.654897 121.937994 
L 238.654897 117.500443 
L 238.236269 114.091105 
L 238.085482 113.062892 
L 236.816528 108.625341 
L 235.008086 104.18779 
L 233.681167 101.70549 
L 232.499992 99.750239 
L 229.294285 95.312688 
L 229.126065 95.120547 
L 225.090054 90.875137 
L 224.570963 90.406779 
L 220.015861 86.593959 
L 219.815244 86.437586 
L 215.460759 83.586012 
L 212.928924 82.000035 
L 210.905657 80.931802 
L 206.350555 78.734716 
L 203.775402 77.562484 
L 201.795453 76.817471 
L 197.240351 75.315931 
L 192.685249 73.960162 
L 189.513955 73.124933 
L 188.130147 72.831926 
L 183.575045 72.06758 
L 179.019943 71.488013 
L 174.464841 71.096574 
L 169.909739 70.898844 
L 165.354636 70.898844 
L 160.799534 71.096574 
L 156.244432 71.488013 
L 151.68933 72.06758 
L 147.134228 72.831926 
L 145.75042 73.124933 
L 142.579126 73.960162 
L 138.024024 75.315931 
L 133.468922 76.817471 
L 131.488973 77.562484 
L 128.91382 78.734716 
L 124.358718 80.931802 
L 122.335451 82.000035 
L 119.803616 83.586012 
L 115.449131 86.437586 
L 115.248514 86.593959 
L 110.693412 90.406779 
L 110.174321 90.875137 
L 106.13831 95.120547 
L 105.97009 95.312688 
L 102.764383 99.750239 
L 101.583208 101.70549 
L 100.256289 104.18779 
L 98.447847 108.625341 
L 97.178893 113.062892 
L 97.028106 114.091105 
L 96.609478 117.500443 
L 96.609478 121.937994 
L 97.028106 125.347332 
L 97.178893 126.375545 
L 98.447847 130.813096 
L 100.256289 135.250647 
L 101.583208 137.732947 
L 102.764383 139.688198 
L 105.97009 144.125749 
L 106.13831 144.31789 
L 110.174321 148.5633 
L 110.693412 149.031658 
L 115.248514 152.844479 
L 115.449131 153.000851 
L 119.803616 155.852425 
L 120.377924 156.21218 
" style="fill:none;stroke:#6495ed;stroke-width:1.5;"/>
    <path clip-path="url(#p5a643dac73)" d="M 128.05127 128.783019 
L 126.830817 126.375545 
L 125.838393 121.937994 
L 125.838393 117.500443 
L 126.830817 113.062892 
L 128.91382 108.953946 
L 129.068803 108.625341 
L 132.371788 104.18779 
L 133.468922 103.118969 
L 137.515796 99.750239 
L 138.024024 99.379061 
L 142.579126 96.581919 
L 145.490965 95.312688 
L 147.134228 94.532818 
L 151.68933 92.921483 
L 156.244432 91.887933 
L 160.799534 91.263468 
L 165.354636 90.967816 
L 169.909739 90.967816 
L 174.464841 91.263468 
L 179.019943 91.887933 
L 183.575045 92.921483 
L 188.130147 94.532818 
L 189.77341 95.312688 
L 192.685249 96.581919 
L 197.240351 99.379061 
L 197.748579 99.750239 
L 201.795453 103.118969 
L 202.892587 104.18779 
L 206.195572 108.625341 
L 206.350555 108.953946 
L 208.433558 113.062892 
L 209.425982 117.500443 
L 209.425982 121.937994 
L 208.433558 126.375545 
L 206.350555 130.484491 
L 206.195572 130.813096 
L 202.892587 135.250647 
L 201.795453 136.319468 
L 197.748579 139.688198 
L 197.240351 140.059376 
L 192.685249 142.856519 
L 189.77341 144.125749 
L 188.130147 144.905619 
L 183.575045 146.516955 
L 179.019943 147.550504 
L 174.464841 148.17497 
L 169.909739 148.470621 
L 165.354636 148.470621 
L 160.799534 148.17497 
L 156.244432 147.550504 
L 151.68933 146.516955 
L 150.556349 146.11617 
" style="fill:none;stroke:#6495ed;stroke-width:1.5;"/>
   </g>
   <g id="LineCollection_6"/>
   <g id="patch_3">
    <path d="M 56.032187 228.439219 
L 56.032187 10.999219 
" style="fill:none;stroke:#000000;stroke-linecap:square;stroke-linejoin:miter;stroke-width:0.8;"/>
   </g>
   <g id="patch_4">
    <path d="M 279.232188 228.439219 
L 279.232188 10.999219 
" style="fill:none;stroke:#000000;stroke-linecap:square;stroke-linejoin:miter;stroke-width:0.8;"/>
   </g>
   <g id="patch_5">
    <path d="M 56.032188 228.439219 
L 279.232188 228.439219 
" style="fill:none;stroke:#000000;stroke-linecap:square;stroke-linejoin:miter;stroke-width:0.8;"/>
   </g>
   <g id="patch_6">
    <path d="M 56.032188 10.999219 
L 279.232188 10.999219 
" style="fill:none;stroke:#000000;stroke-linecap:square;stroke-linejoin:miter;stroke-width:0.8;"/>
   </g>
   <g id="text_17">
    <g clip-path="url(#p5a643dac73)">
     <!-- 0.08 -->
     <g style="fill:#6495ed;" transform="translate(124.295336 191.998141)rotate(-347.322783)scale(0.08 -0.08)">
      <defs>
       <path d="M 31.78125 34.625 
Q 24.75 34.625 20.71875 30.859375 
Q 16.703125 27.09375 16.703125 20.515625 
Q 16.703125 13.921875 20.71875 10.15625 
Q 24.75 6.390625 31.78125 6.390625 
Q 38.8125 6.390625 42.859375 10.171875 
Q 46.921875 13.96875 46.921875 20.515625 
Q 46.921875 27.09375 42.890625 30.859375 
Q 38.875 34.625 31.78125 34.625 
z
M 21.921875 38.8125 
Q 15.578125 40.375 12.03125 44.71875 
Q 8.5 49.078125 8.5 55.328125 
Q 8.5 64.0625 14.71875 69.140625 
Q 20.953125 74.21875 31.78125 74.21875 
Q 42.671875 74.21875 48.875 69.140625 
Q 55.078125 64.0625 55.078125 55.328125 
Q 55.078125 49.078125 51.53125 44.71875 
Q 48 40.375 41.703125 38.8125 
Q 48.828125 37.15625 52.796875 32.3125 
Q 56.78125 27.484375 56.78125 20.515625 
Q 56.78125 9.90625 50.3125 4.234375 
Q 43.84375 -1.421875 31.78125 -1.421875 
Q 19.734375 -1.421875 13.25 4.234375 
Q 6.78125 9.90625 6.78125 20.515625 
Q 6.78125 27.484375 10.78125 32.3125 
Q 14.796875 37.15625 21.921875 38.8125 
z
M 18.3125 54.390625 
Q 18.3125 48.734375 21.84375 45.5625 
Q 25.390625 42.390625 31.78125 42.390625 
Q 38.140625 42.390625 41.71875 45.5625 
Q 45.3125 48.734375 45.3125 54.390625 
Q 45.3125 60.0625 41.71875 63.234375 
Q 38.140625 66.40625 31.78125 66.40625 
Q 25.390625 66.40625 21.84375 63.234375 
Q 18.3125 60.0625 18.3125 54.390625 
z
" id="DejaVuSans-56"/>
      </defs>
      <use xlink:href="#DejaVuSans-48"/>
      <use x="63.623047" xlink:href="#DejaVuSans-46"/>
      <use x="95.410156" xlink:href="#DejaVuSans-48"/>
      <use x="159.033203" xlink:href="#DejaVuSans-56"/>
     </g>
    </g>
   </g>
   <g id="text_18">
    <g clip-path="url(#p5a643dac73)">
     <!-- 0.08 -->
     <g style="fill:#6495ed;" transform="translate(156.263242 132.194864)rotate(-353.854231)scale(0.08 -0.08)">
      <use xlink:href="#DejaVuSans-48"/>
      <use x="63.623047" xlink:href="#DejaVuSans-46"/>
      <use x="95.410156" xlink:href="#DejaVuSans-48"/>
      <use x="159.033203" xlink:href="#DejaVuSans-56"/>
     </g>
    </g>
   </g>
   <g id="text_19">
    <g clip-path="url(#p5a643dac73)">
     <!-- 0.16 -->
     <g style="fill:#6495ed;" transform="translate(179.655251 187.125669)rotate(-8.618202)scale(0.08 -0.08)">
      <defs>
       <path d="M 33.015625 40.375 
Q 26.375 40.375 22.484375 35.828125 
Q 18.609375 31.296875 18.609375 23.390625 
Q 18.609375 15.53125 22.484375 10.953125 
Q 26.375 6.390625 33.015625 6.390625 
Q 39.65625 6.390625 43.53125 10.953125 
Q 47.40625 15.53125 47.40625 23.390625 
Q 47.40625 31.296875 43.53125 35.828125 
Q 39.65625 40.375 33.015625 40.375 
z
M 52.59375 71.296875 
L 52.59375 62.3125 
Q 48.875 64.0625 45.09375 64.984375 
Q 41.3125 65.921875 37.59375 65.921875 
Q 27.828125 65.921875 22.671875 59.328125 
Q 17.53125 52.734375 16.796875 39.40625 
Q 19.671875 43.65625 24.015625 45.921875 
Q 28.375 48.1875 33.59375 48.1875 
Q 44.578125 48.1875 50.953125 41.515625 
Q 57.328125 34.859375 57.328125 23.390625 
Q 57.328125 12.15625 50.6875 5.359375 
Q 44.046875 -1.421875 33.015625 -1.421875 
Q 20.359375 -1.421875 13.671875 8.265625 
Q 6.984375 17.96875 6.984375 36.375 
Q 6.984375 53.65625 15.1875 63.9375 
Q 23.390625 74.21875 37.203125 74.21875 
Q 40.921875 74.21875 44.703125 73.484375 
Q 48.484375 72.75 52.59375 71.296875 
z
" id="DejaVuSans-54"/>
      </defs>
      <use xlink:href="#DejaVuSans-48"/>
      <use x="63.623047" xlink:href="#DejaVuSans-46"/>
      <use x="95.410156" xlink:href="#DejaVuSans-49"/>
      <use x="159.033203" xlink:href="#DejaVuSans-54"/>
     </g>
    </g>
   </g>
   <g id="text_20">
    <g clip-path="url(#p5a643dac73)">
     <!-- 0.16 -->
     <g style="fill:#6495ed;" transform="translate(142.624202 121.914543)rotate(-60.805652)scale(0.08 -0.08)">
      <use xlink:href="#DejaVuSans-48"/>
      <use x="63.623047" xlink:href="#DejaVuSans-46"/>
      <use x="95.410156" xlink:href="#DejaVuSans-49"/>
      <use x="159.033203" xlink:href="#DejaVuSans-54"/>
     </g>
    </g>
   </g>
   <g id="text_21">
    <g clip-path="url(#p5a643dac73)">
     <!-- 0.24 -->
     <g style="fill:#6495ed;" transform="translate(99.282374 89.273131)rotate(-38.51247)scale(0.08 -0.08)">
      <defs>
       <path d="M 37.796875 64.3125 
L 12.890625 25.390625 
L 37.796875 25.390625 
z
M 35.203125 72.90625 
L 47.609375 72.90625 
L 47.609375 25.390625 
L 58.015625 25.390625 
L 58.015625 17.1875 
L 47.609375 17.1875 
L 47.609375 0 
L 37.796875 0 
L 37.796875 17.1875 
L 4.890625 17.1875 
L 4.890625 26.703125 
z
" id="DejaVuSans-52"/>
      </defs>
      <use xlink:href="#DejaVuSans-48"/>
      <use x="63.623047" xlink:href="#DejaVuSans-46"/>
      <use x="95.410156" xlink:href="#DejaVuSans-50"/>
      <use x="159.033203" xlink:href="#DejaVuSans-52"/>
     </g>
    </g>
   </g>
   <g id="text_22">
    <g clip-path="url(#p5a643dac73)">
     <!-- 0.24 -->
     <g style="fill:#6495ed;" transform="translate(182.327469 100.640821)rotate(-323.338667)scale(0.08 -0.08)">
      <use xlink:href="#DejaVuSans-48"/>
      <use x="63.623047" xlink:href="#DejaVuSans-46"/>
      <use x="95.410156" xlink:href="#DejaVuSans-50"/>
      <use x="159.033203" xlink:href="#DejaVuSans-52"/>
     </g>
    </g>
   </g>
   <g id="text_23">
    <g clip-path="url(#p5a643dac73)">
     <!-- 0.32 -->
     <g style="fill:#6495ed;" transform="translate(124.359633 161.518603)rotate(-339.179121)scale(0.08 -0.08)">
      <defs>
       <path d="M 40.578125 39.3125 
Q 47.65625 37.796875 51.625 33 
Q 55.609375 28.21875 55.609375 21.1875 
Q 55.609375 10.40625 48.1875 4.484375 
Q 40.765625 -1.421875 27.09375 -1.421875 
Q 22.515625 -1.421875 17.65625 -0.515625 
Q 12.796875 0.390625 7.625 2.203125 
L 7.625 11.71875 
Q 11.71875 9.328125 16.59375 8.109375 
Q 21.484375 6.890625 26.8125 6.890625 
Q 36.078125 6.890625 40.9375 10.546875 
Q 45.796875 14.203125 45.796875 21.1875 
Q 45.796875 27.640625 41.28125 31.265625 
Q 36.765625 34.90625 28.71875 34.90625 
L 20.21875 34.90625 
L 20.21875 43.015625 
L 29.109375 43.015625 
Q 36.375 43.015625 40.234375 45.921875 
Q 44.09375 48.828125 44.09375 54.296875 
Q 44.09375 59.90625 40.109375 62.90625 
Q 36.140625 65.921875 28.71875 65.921875 
Q 24.65625 65.921875 20.015625 65.03125 
Q 15.375 64.15625 9.8125 62.3125 
L 9.8125 71.09375 
Q 15.4375 72.65625 20.34375 73.4375 
Q 25.25 74.21875 29.59375 74.21875 
Q 40.828125 74.21875 47.359375 69.109375 
Q 53.90625 64.015625 53.90625 55.328125 
Q 53.90625 49.265625 50.4375 45.09375 
Q 46.96875 40.921875 40.578125 39.3125 
z
" id="DejaVuSans-51"/>
      </defs>
      <use xlink:href="#DejaVuSans-48"/>
      <use x="63.623047" xlink:href="#DejaVuSans-46"/>
      <use x="95.410156" xlink:href="#DejaVuSans-51"/>
      <use x="159.033203" xlink:href="#DejaVuSans-50"/>
     </g>
    </g>
   </g>
   <g id="text_24">
    <g clip-path="url(#p5a643dac73)">
     <!-- 0.32 -->
     <g style="fill:#6495ed;" transform="translate(129.053849 136.139987)rotate(-323.330257)scale(0.08 -0.08)">
      <use xlink:href="#DejaVuSans-48"/>
      <use x="63.623047" xlink:href="#DejaVuSans-46"/>
      <use x="95.410156" xlink:href="#DejaVuSans-51"/>
      <use x="159.033203" xlink:href="#DejaVuSans-50"/>
     </g>
    </g>
   </g>
  </g>
 </g>
 <defs>
  <clipPath id="p5a643dac73">
   <rect height="217.44" width="223.2" x="56.032187" y="10.999219"/>
  </clipPath>
 </defs>
</svg>
