<?xml version="1.0" encoding="utf-8" standalone="no"?>
<!DOCTYPE svg PUBLIC "-//W3C//DTD SVG 1.1//EN"
  "http://www.w3.org/Graphics/SVG/1.1/DTD/svg11.dtd">
<!-- Created with matplotlib (https://matplotlib.org/) -->
<svg height="263.63625pt" version="1.1" viewBox="0 0 882.685937 263.63625" width="882.685937pt" xmlns="http://www.w3.org/2000/svg" xmlns:xlink="http://www.w3.org/1999/xlink">
 <metadata>
  <rdf:RDF xmlns:cc="http://creativecommons.org/ns#" xmlns:dc="http://purl.org/dc/elements/1.1/" xmlns:rdf="http://www.w3.org/1999/02/22-rdf-syntax-ns#">
   <cc:Work>
    <dc:type rdf:resource="http://purl.org/dc/dcmitype/StillImage"/>
    <dc:date>2020-09-13T00:56:00.360173</dc:date>
    <dc:format>image/svg+xml</dc:format>
    <dc:creator>
     <cc:Agent>
      <dc:title>Matplotlib v3.3.1, https://matplotlib.org/</dc:title>
     </cc:Agent>
    </dc:creator>
   </cc:Work>
  </rdf:RDF>
 </metadata>
 <defs>
  <style type="text/css">*{stroke-linecap:butt;stroke-linejoin:round;}</style>
 </defs>
 <g id="figure_1">
  <g id="patch_1">
   <path d="M 0 263.63625 
L 882.685937 263.63625 
L 882.685937 0 
L 0 0 
z
" style="fill:none;"/>
  </g>
  <g id="axes_1">
   <g id="patch_2">
    <path d="M 35.304688 102.851458 
L 267.804688 102.851458 
L 267.804688 22.318125 
L 35.304688 22.318125 
z
" style="fill:#ffffff;"/>
   </g>
   <g id="matplotlib.axis_1">
    <g id="xtick_1">
     <g id="line2d_1">
      <defs>
       <path d="M 0 0 
L 0 3.5 
" id="m94d0f5d01f" style="stroke:#000000;stroke-width:0.8;"/>
      </defs>
      <g>
       <use style="stroke:#000000;stroke-width:0.8;" x="35.304688" xlink:href="#m94d0f5d01f" y="102.851458"/>
      </g>
     </g>
     <g id="text_1">
      <!-- −3 -->
      <g transform="translate(27.933594 117.449896)scale(0.1 -0.1)">
       <defs>
        <path d="M 10.59375 35.5 
L 73.1875 35.5 
L 73.1875 27.203125 
L 10.59375 27.203125 
z
" id="DejaVuSans-8722"/>
        <path d="M 40.578125 39.3125 
Q 47.65625 37.796875 51.625 33 
Q 55.609375 28.21875 55.609375 21.1875 
Q 55.609375 10.40625 48.1875 4.484375 
Q 40.765625 -1.421875 27.09375 -1.421875 
Q 22.515625 -1.421875 17.65625 -0.515625 
Q 12.796875 0.390625 7.625 2.203125 
L 7.625 11.71875 
Q 11.71875 9.328125 16.59375 8.109375 
Q 21.484375 6.890625 26.8125 6.890625 
Q 36.078125 6.890625 40.9375 10.546875 
Q 45.796875 14.203125 45.796875 21.1875 
Q 45.796875 27.640625 41.28125 31.265625 
Q 36.765625 34.90625 28.71875 34.90625 
L 20.21875 34.90625 
L 20.21875 43.015625 
L 29.109375 43.015625 
Q 36.375 43.015625 40.234375 45.921875 
Q 44.09375 48.828125 44.09375 54.296875 
Q 44.09375 59.90625 40.109375 62.90625 
Q 36.140625 65.921875 28.71875 65.921875 
Q 24.65625 65.921875 20.015625 65.03125 
Q 15.375 64.15625 9.8125 62.3125 
L 9.8125 71.09375 
Q 15.4375 72.65625 20.34375 73.4375 
Q 25.25 74.21875 29.59375 74.21875 
Q 40.828125 74.21875 47.359375 69.109375 
Q 53.90625 64.015625 53.90625 55.328125 
Q 53.90625 49.265625 50.4375 45.09375 
Q 46.96875 40.921875 40.578125 39.3125 
z
" id="DejaVuSans-51"/>
       </defs>
       <use xlink:href="#DejaVuSans-8722"/>
       <use x="83.789062" xlink:href="#DejaVuSans-51"/>
      </g>
     </g>
    </g>
    <g id="xtick_2">
     <g id="line2d_2">
      <g>
       <use style="stroke:#000000;stroke-width:0.8;" x="74.054688" xlink:href="#m94d0f5d01f" y="102.851458"/>
      </g>
     </g>
     <g id="text_2">
      <!-- −2 -->
      <g transform="translate(66.683594 117.449896)scale(0.1 -0.1)">
       <defs>
        <path d="M 19.1875 8.296875 
L 53.609375 8.296875 
L 53.609375 0 
L 7.328125 0 
L 7.328125 8.296875 
Q 12.9375 14.109375 22.625 23.890625 
Q 32.328125 33.6875 34.8125 36.53125 
Q 39.546875 41.84375 41.421875 45.53125 
Q 43.3125 49.21875 43.3125 52.78125 
Q 43.3125 58.59375 39.234375 62.25 
Q 35.15625 65.921875 28.609375 65.921875 
Q 23.96875 65.921875 18.8125 64.3125 
Q 13.671875 62.703125 7.8125 59.421875 
L 7.8125 69.390625 
Q 13.765625 71.78125 18.9375 73 
Q 24.125 74.21875 28.421875 74.21875 
Q 39.75 74.21875 46.484375 68.546875 
Q 53.21875 62.890625 53.21875 53.421875 
Q 53.21875 48.921875 51.53125 44.890625 
Q 49.859375 40.875 45.40625 35.40625 
Q 44.1875 33.984375 37.640625 27.21875 
Q 31.109375 20.453125 19.1875 8.296875 
z
" id="DejaVuSans-50"/>
       </defs>
       <use xlink:href="#DejaVuSans-8722"/>
       <use x="83.789062" xlink:href="#DejaVuSans-50"/>
      </g>
     </g>
    </g>
    <g id="xtick_3">
     <g id="line2d_3">
      <g>
       <use style="stroke:#000000;stroke-width:0.8;" x="112.804688" xlink:href="#m94d0f5d01f" y="102.851458"/>
      </g>
     </g>
     <g id="text_3">
      <!-- −1 -->
      <g transform="translate(105.433594 117.449896)scale(0.1 -0.1)">
       <defs>
        <path d="M 12.40625 8.296875 
L 28.515625 8.296875 
L 28.515625 63.921875 
L 10.984375 60.40625 
L 10.984375 69.390625 
L 28.421875 72.90625 
L 38.28125 72.90625 
L 38.28125 8.296875 
L 54.390625 8.296875 
L 54.390625 0 
L 12.40625 0 
z
" id="DejaVuSans-49"/>
       </defs>
       <use xlink:href="#DejaVuSans-8722"/>
       <use x="83.789062" xlink:href="#DejaVuSans-49"/>
      </g>
     </g>
    </g>
    <g id="xtick_4">
     <g id="line2d_4">
      <g>
       <use style="stroke:#000000;stroke-width:0.8;" x="151.554688" xlink:href="#m94d0f5d01f" y="102.851458"/>
      </g>
     </g>
     <g id="text_4">
      <!-- 0 -->
      <g transform="translate(148.373437 117.449896)scale(0.1 -0.1)">
       <defs>
        <path d="M 31.78125 66.40625 
Q 24.171875 66.40625 20.328125 58.90625 
Q 16.5 51.421875 16.5 36.375 
Q 16.5 21.390625 20.328125 13.890625 
Q 24.171875 6.390625 31.78125 6.390625 
Q 39.453125 6.390625 43.28125 13.890625 
Q 47.125 21.390625 47.125 36.375 
Q 47.125 51.421875 43.28125 58.90625 
Q 39.453125 66.40625 31.78125 66.40625 
z
M 31.78125 74.21875 
Q 44.046875 74.21875 50.515625 64.515625 
Q 56.984375 54.828125 56.984375 36.375 
Q 56.984375 17.96875 50.515625 8.265625 
Q 44.046875 -1.421875 31.78125 -1.421875 
Q 19.53125 -1.421875 13.0625 8.265625 
Q 6.59375 17.96875 6.59375 36.375 
Q 6.59375 54.828125 13.0625 64.515625 
Q 19.53125 74.21875 31.78125 74.21875 
z
" id="DejaVuSans-48"/>
       </defs>
       <use xlink:href="#DejaVuSans-48"/>
      </g>
     </g>
    </g>
    <g id="xtick_5">
     <g id="line2d_5">
      <g>
       <use style="stroke:#000000;stroke-width:0.8;" x="190.304688" xlink:href="#m94d0f5d01f" y="102.851458"/>
      </g>
     </g>
     <g id="text_5">
      <!-- 1 -->
      <g transform="translate(187.123437 117.449896)scale(0.1 -0.1)">
       <use xlink:href="#DejaVuSans-49"/>
      </g>
     </g>
    </g>
    <g id="xtick_6">
     <g id="line2d_6">
      <g>
       <use style="stroke:#000000;stroke-width:0.8;" x="229.054688" xlink:href="#m94d0f5d01f" y="102.851458"/>
      </g>
     </g>
     <g id="text_6">
      <!-- 2 -->
      <g transform="translate(225.873437 117.449896)scale(0.1 -0.1)">
       <use xlink:href="#DejaVuSans-50"/>
      </g>
     </g>
    </g>
    <g id="xtick_7">
     <g id="line2d_7">
      <g>
       <use style="stroke:#000000;stroke-width:0.8;" x="267.804688" xlink:href="#m94d0f5d01f" y="102.851458"/>
      </g>
     </g>
     <g id="text_7">
      <!-- 3 -->
      <g transform="translate(264.623438 117.449896)scale(0.1 -0.1)">
       <use xlink:href="#DejaVuSans-51"/>
      </g>
     </g>
    </g>
   </g>
   <g id="matplotlib.axis_2">
    <g id="ytick_1">
     <g id="line2d_8">
      <defs>
       <path d="M 0 0 
L -3.5 0 
" id="m6c591adb24" style="stroke:#000000;stroke-width:0.8;"/>
      </defs>
      <g>
       <use style="stroke:#000000;stroke-width:0.8;" x="35.304688" xlink:href="#m6c591adb24" y="94.798125"/>
      </g>
     </g>
     <g id="text_8">
      <!-- −20 -->
      <g transform="translate(7.2 98.597344)scale(0.1 -0.1)">
       <use xlink:href="#DejaVuSans-8722"/>
       <use x="83.789062" xlink:href="#DejaVuSans-50"/>
       <use x="147.412109" xlink:href="#DejaVuSans-48"/>
      </g>
     </g>
    </g>
    <g id="ytick_2">
     <g id="line2d_9">
      <g>
       <use style="stroke:#000000;stroke-width:0.8;" x="35.304688" xlink:href="#m6c591adb24" y="62.584792"/>
      </g>
     </g>
     <g id="text_9">
      <!-- 0 -->
      <g transform="translate(21.942188 66.38401)scale(0.1 -0.1)">
       <use xlink:href="#DejaVuSans-48"/>
      </g>
     </g>
    </g>
    <g id="ytick_3">
     <g id="line2d_10">
      <g>
       <use style="stroke:#000000;stroke-width:0.8;" x="35.304688" xlink:href="#m6c591adb24" y="30.371458"/>
      </g>
     </g>
     <g id="text_10">
      <!-- 20 -->
      <g transform="translate(15.579688 34.170677)scale(0.1 -0.1)">
       <use xlink:href="#DejaVuSans-50"/>
       <use x="63.623047" xlink:href="#DejaVuSans-48"/>
      </g>
     </g>
    </g>
   </g>
   <g id="line2d_11">
    <path clip-path="url(#p391787582d)" d="M 35.304688 106.072792 
L 37.653172 103.490042 
L 40.001657 101.011631 
L 42.350142 98.635408 
L 44.698627 96.359222 
L 47.047112 94.18092 
L 49.395597 92.098352 
L 51.744081 90.109367 
L 54.092566 88.211813 
L 56.441051 86.403538 
L 58.789536 84.682393 
L 61.138021 83.046224 
L 63.486506 81.492881 
L 65.834991 80.020212 
L 68.183475 78.626067 
L 70.53196 77.308294 
L 72.880445 76.064741 
L 75.22893 74.893257 
L 77.577415 73.791692 
L 79.9259 72.757893 
L 82.274384 71.789709 
L 84.622869 70.884989 
L 86.971354 70.041582 
L 89.319839 69.257336 
L 91.668324 68.5301 
L 94.016809 67.857723 
L 96.365294 67.238053 
L 98.713778 66.668939 
L 101.062263 66.14823 
L 103.410748 65.673774 
L 105.759233 65.24342 
L 108.107718 64.855017 
L 110.456203 64.506414 
L 112.804688 64.195458 
L 115.153172 63.92 
L 117.501657 63.677887 
L 119.850142 63.466967 
L 122.198627 63.285091 
L 124.547112 63.130107 
L 126.895597 62.999862 
L 129.244081 62.892206 
L 131.592566 62.804988 
L 133.941051 62.736056 
L 136.289536 62.683259 
L 138.638021 62.644446 
L 140.986506 62.617465 
L 143.334991 62.600165 
L 145.683475 62.590394 
L 148.03196 62.586002 
L 150.380445 62.584836 
L 152.72893 62.584747 
L 155.077415 62.583582 
L 157.4259 62.579189 
L 159.774384 62.569419 
L 162.122869 62.552118 
L 164.471354 62.525137 
L 166.819839 62.486324 
L 169.168324 62.433527 
L 171.516809 62.364595 
L 173.865294 62.277377 
L 176.213778 62.169721 
L 178.562263 62.039477 
L 180.910748 61.884492 
L 183.259233 61.702616 
L 185.607718 61.491697 
L 187.956203 61.249584 
L 190.304688 60.974125 
L 192.653172 60.66317 
L 195.001657 60.314566 
L 197.350142 59.926163 
L 199.698627 59.495809 
L 202.047112 59.021354 
L 204.395597 58.500644 
L 206.744081 57.931531 
L 209.092566 57.311861 
L 211.441051 56.639483 
L 213.789536 55.912247 
L 216.138021 55.128002 
L 218.486506 54.284594 
L 220.834991 53.379874 
L 223.183475 52.411691 
L 225.53196 51.377892 
L 227.880445 50.276326 
L 230.22893 49.104842 
L 232.577415 47.86129 
L 234.9259 46.543516 
L 237.274384 45.149371 
L 239.622869 43.676703 
L 241.971354 42.12336 
L 244.319839 40.487191 
L 246.668324 38.766045 
L 249.016809 36.95777 
L 251.365294 35.060216 
L 253.713778 33.071231 
L 256.062263 30.988663 
L 258.410748 28.810362 
L 260.759233 26.534175 
L 263.107718 24.157952 
L 265.456203 21.679541 
L 267.804688 19.096792 
" style="fill:none;stroke:#6495ed;stroke-linecap:square;stroke-width:1.5;"/>
   </g>
   <g id="patch_3">
    <path d="M 35.304688 102.851458 
L 35.304688 22.318125 
" style="fill:none;stroke:#000000;stroke-linecap:square;stroke-linejoin:miter;stroke-width:0.8;"/>
   </g>
   <g id="patch_4">
    <path d="M 267.804688 102.851458 
L 267.804688 22.318125 
" style="fill:none;stroke:#000000;stroke-linecap:square;stroke-linejoin:miter;stroke-width:0.8;"/>
   </g>
   <g id="patch_5">
    <path d="M 35.304688 102.851458 
L 267.804688 102.851458 
" style="fill:none;stroke:#000000;stroke-linecap:square;stroke-linejoin:miter;stroke-width:0.8;"/>
   </g>
   <g id="patch_6">
    <path d="M 35.304688 22.318125 
L 267.804688 22.318125 
" style="fill:none;stroke:#000000;stroke-linecap:square;stroke-linejoin:miter;stroke-width:0.8;"/>
   </g>
   <g id="text_11">
    <!-- 1 -->
    <g transform="translate(147.737188 16.318125)scale(0.12 -0.12)">
     <use xlink:href="#DejaVuSans-49"/>
    </g>
   </g>
  </g>
  <g id="axes_2">
   <g id="patch_7">
    <path d="M 337.554688 102.851458 
L 570.054688 102.851458 
L 570.054688 22.318125 
L 337.554688 22.318125 
z
" style="fill:#ffffff;"/>
   </g>
   <g id="matplotlib.axis_3">
    <g id="xtick_8">
     <g id="line2d_12">
      <g>
       <use style="stroke:#000000;stroke-width:0.8;" x="337.554688" xlink:href="#m94d0f5d01f" y="102.851458"/>
      </g>
     </g>
     <g id="text_12">
      <!-- −3 -->
      <g transform="translate(330.183594 117.449896)scale(0.1 -0.1)">
       <use xlink:href="#DejaVuSans-8722"/>
       <use x="83.789062" xlink:href="#DejaVuSans-51"/>
      </g>
     </g>
    </g>
    <g id="xtick_9">
     <g id="line2d_13">
      <g>
       <use style="stroke:#000000;stroke-width:0.8;" x="376.304688" xlink:href="#m94d0f5d01f" y="102.851458"/>
      </g>
     </g>
     <g id="text_13">
      <!-- −2 -->
      <g transform="translate(368.933594 117.449896)scale(0.1 -0.1)">
       <use xlink:href="#DejaVuSans-8722"/>
       <use x="83.789062" xlink:href="#DejaVuSans-50"/>
      </g>
     </g>
    </g>
    <g id="xtick_10">
     <g id="line2d_14">
      <g>
       <use style="stroke:#000000;stroke-width:0.8;" x="415.054688" xlink:href="#m94d0f5d01f" y="102.851458"/>
      </g>
     </g>
     <g id="text_14">
      <!-- −1 -->
      <g transform="translate(407.683594 117.449896)scale(0.1 -0.1)">
       <use xlink:href="#DejaVuSans-8722"/>
       <use x="83.789062" xlink:href="#DejaVuSans-49"/>
      </g>
     </g>
    </g>
    <g id="xtick_11">
     <g id="line2d_15">
      <g>
       <use style="stroke:#000000;stroke-width:0.8;" x="453.804688" xlink:href="#m94d0f5d01f" y="102.851458"/>
      </g>
     </g>
     <g id="text_15">
      <!-- 0 -->
      <g transform="translate(450.623438 117.449896)scale(0.1 -0.1)">
       <use xlink:href="#DejaVuSans-48"/>
      </g>
     </g>
    </g>
    <g id="xtick_12">
     <g id="line2d_16">
      <g>
       <use style="stroke:#000000;stroke-width:0.8;" x="492.554688" xlink:href="#m94d0f5d01f" y="102.851458"/>
      </g>
     </g>
     <g id="text_16">
      <!-- 1 -->
      <g transform="translate(489.373438 117.449896)scale(0.1 -0.1)">
       <use xlink:href="#DejaVuSans-49"/>
      </g>
     </g>
    </g>
    <g id="xtick_13">
     <g id="line2d_17">
      <g>
       <use style="stroke:#000000;stroke-width:0.8;" x="531.304688" xlink:href="#m94d0f5d01f" y="102.851458"/>
      </g>
     </g>
     <g id="text_17">
      <!-- 2 -->
      <g transform="translate(528.123438 117.449896)scale(0.1 -0.1)">
       <use xlink:href="#DejaVuSans-50"/>
      </g>
     </g>
    </g>
    <g id="xtick_14">
     <g id="line2d_18">
      <g>
       <use style="stroke:#000000;stroke-width:0.8;" x="570.054688" xlink:href="#m94d0f5d01f" y="102.851458"/>
      </g>
     </g>
     <g id="text_18">
      <!-- 3 -->
      <g transform="translate(566.873438 117.449896)scale(0.1 -0.1)">
       <use xlink:href="#DejaVuSans-51"/>
      </g>
     </g>
    </g>
   </g>
   <g id="matplotlib.axis_4">
    <g id="ytick_4">
     <g id="line2d_19">
      <g>
       <use style="stroke:#000000;stroke-width:0.8;" x="337.554688" xlink:href="#m6c591adb24" y="94.798125"/>
      </g>
     </g>
     <g id="text_19">
      <!-- −20 -->
      <g transform="translate(309.45 98.597344)scale(0.1 -0.1)">
       <use xlink:href="#DejaVuSans-8722"/>
       <use x="83.789062" xlink:href="#DejaVuSans-50"/>
       <use x="147.412109" xlink:href="#DejaVuSans-48"/>
      </g>
     </g>
    </g>
    <g id="ytick_5">
     <g id="line2d_20">
      <g>
       <use style="stroke:#000000;stroke-width:0.8;" x="337.554688" xlink:href="#m6c591adb24" y="62.584792"/>
      </g>
     </g>
     <g id="text_20">
      <!-- 0 -->
      <g transform="translate(324.192187 66.38401)scale(0.1 -0.1)">
       <use xlink:href="#DejaVuSans-48"/>
      </g>
     </g>
    </g>
    <g id="ytick_6">
     <g id="line2d_21">
      <g>
       <use style="stroke:#000000;stroke-width:0.8;" x="337.554688" xlink:href="#m6c591adb24" y="30.371458"/>
      </g>
     </g>
     <g id="text_21">
      <!-- 20 -->
      <g transform="translate(317.829687 34.170677)scale(0.1 -0.1)">
       <use xlink:href="#DejaVuSans-50"/>
       <use x="63.623047" xlink:href="#DejaVuSans-48"/>
      </g>
     </g>
    </g>
   </g>
   <g id="line2d_22">
    <path clip-path="url(#p13eb0c700e)" d="M 337.554688 101.240792 
L 339.903172 98.755658 
L 342.251657 96.374864 
L 344.600142 94.096257 
L 346.948627 91.917686 
L 349.297112 89.837001 
L 351.645597 87.852049 
L 353.994081 85.96068 
L 356.342566 84.160742 
L 358.691051 82.450084 
L 361.039536 80.826554 
L 363.388021 79.288002 
L 365.736506 77.832275 
L 368.084991 76.457222 
L 370.433475 75.160693 
L 372.78196 73.940536 
L 375.130445 72.7946 
L 377.47893 71.720732 
L 379.827415 70.716783 
L 382.1759 69.7806 
L 384.524384 68.910032 
L 386.872869 68.102928 
L 389.221354 67.357137 
L 391.569839 66.670508 
L 393.918324 66.040888 
L 396.266809 65.466127 
L 398.615294 64.944073 
L 400.963778 64.472575 
L 403.312263 64.049482 
L 405.660748 63.672643 
L 408.009233 63.339905 
L 410.357718 63.049118 
L 412.706203 62.798131 
L 415.054688 62.584792 
L 417.403172 62.406949 
L 419.751657 62.262452 
L 422.100142 62.149149 
L 424.448627 62.064889 
L 426.797112 62.007521 
L 429.145597 61.974892 
L 431.494081 61.964853 
L 433.842566 61.975251 
L 436.191051 62.003935 
L 438.539536 62.048754 
L 440.888021 62.107557 
L 443.236506 62.178192 
L 445.584991 62.258508 
L 447.933475 62.346354 
L 450.28196 62.439578 
L 452.630445 62.536028 
L 454.97893 62.633555 
L 457.327415 62.730006 
L 459.6759 62.82323 
L 462.024384 62.911075 
L 464.372869 62.991391 
L 466.721354 63.062026 
L 469.069839 63.120829 
L 471.418324 63.165648 
L 473.766809 63.194332 
L 476.115294 63.20473 
L 478.463778 63.194691 
L 480.812263 63.162063 
L 483.160748 63.104694 
L 485.509233 63.020434 
L 487.857718 62.907131 
L 490.206203 62.762634 
L 492.554688 62.584792 
L 494.903172 62.371452 
L 497.251657 62.120465 
L 499.600142 61.829678 
L 501.948627 61.496941 
L 504.297112 61.120101 
L 506.645597 60.697008 
L 508.994081 60.22551 
L 511.342566 59.703457 
L 513.691051 59.128695 
L 516.039536 58.499076 
L 518.388021 57.812446 
L 520.736506 57.066655 
L 523.084991 56.259551 
L 525.433475 55.388984 
L 527.78196 54.452801 
L 530.130445 53.448851 
L 532.47893 52.374984 
L 534.827415 51.229047 
L 537.1759 50.00889 
L 539.524384 48.712361 
L 541.872869 47.337309 
L 544.221354 45.881582 
L 546.569839 44.343029 
L 548.918324 42.719499 
L 551.266809 41.008841 
L 553.615294 39.208903 
L 555.963778 37.317534 
L 558.312263 35.332582 
L 560.660748 33.251897 
L 563.009233 31.073327 
L 565.357718 28.79472 
L 567.706203 26.413925 
L 570.054688 23.928792 
" style="fill:none;stroke:#6495ed;stroke-linecap:square;stroke-width:1.5;"/>
   </g>
   <g id="patch_8">
    <path d="M 337.554688 102.851458 
L 337.554688 22.318125 
" style="fill:none;stroke:#000000;stroke-linecap:square;stroke-linejoin:miter;stroke-width:0.8;"/>
   </g>
   <g id="patch_9">
    <path d="M 570.054688 102.851458 
L 570.054688 22.318125 
" style="fill:none;stroke:#000000;stroke-linecap:square;stroke-linejoin:miter;stroke-width:0.8;"/>
   </g>
   <g id="patch_10">
    <path d="M 337.554688 102.851458 
L 570.054688 102.851458 
" style="fill:none;stroke:#000000;stroke-linecap:square;stroke-linejoin:miter;stroke-width:0.8;"/>
   </g>
   <g id="patch_11">
    <path d="M 337.554688 22.318125 
L 570.054688 22.318125 
" style="fill:none;stroke:#000000;stroke-linecap:square;stroke-linejoin:miter;stroke-width:0.8;"/>
   </g>
   <g id="text_22">
    <!-- 2 -->
    <g transform="translate(449.987188 16.318125)scale(0.12 -0.12)">
     <use xlink:href="#DejaVuSans-50"/>
    </g>
   </g>
  </g>
  <g id="axes_3">
   <g id="patch_12">
    <path d="M 639.804688 102.851458 
L 872.304688 102.851458 
L 872.304688 22.318125 
L 639.804688 22.318125 
z
" style="fill:#ffffff;"/>
   </g>
   <g id="matplotlib.axis_5">
    <g id="xtick_15">
     <g id="line2d_23">
      <g>
       <use style="stroke:#000000;stroke-width:0.8;" x="639.804688" xlink:href="#m94d0f5d01f" y="102.851458"/>
      </g>
     </g>
     <g id="text_23">
      <!-- −3 -->
      <g transform="translate(632.433594 117.449896)scale(0.1 -0.1)">
       <use xlink:href="#DejaVuSans-8722"/>
       <use x="83.789062" xlink:href="#DejaVuSans-51"/>
      </g>
     </g>
    </g>
    <g id="xtick_16">
     <g id="line2d_24">
      <g>
       <use style="stroke:#000000;stroke-width:0.8;" x="678.554688" xlink:href="#m94d0f5d01f" y="102.851458"/>
      </g>
     </g>
     <g id="text_24">
      <!-- −2 -->
      <g transform="translate(671.183594 117.449896)scale(0.1 -0.1)">
       <use xlink:href="#DejaVuSans-8722"/>
       <use x="83.789062" xlink:href="#DejaVuSans-50"/>
      </g>
     </g>
    </g>
    <g id="xtick_17">
     <g id="line2d_25">
      <g>
       <use style="stroke:#000000;stroke-width:0.8;" x="717.304688" xlink:href="#m94d0f5d01f" y="102.851458"/>
      </g>
     </g>
     <g id="text_25">
      <!-- −1 -->
      <g transform="translate(709.933594 117.449896)scale(0.1 -0.1)">
       <use xlink:href="#DejaVuSans-8722"/>
       <use x="83.789062" xlink:href="#DejaVuSans-49"/>
      </g>
     </g>
    </g>
    <g id="xtick_18">
     <g id="line2d_26">
      <g>
       <use style="stroke:#000000;stroke-width:0.8;" x="756.054688" xlink:href="#m94d0f5d01f" y="102.851458"/>
      </g>
     </g>
     <g id="text_26">
      <!-- 0 -->
      <g transform="translate(752.873438 117.449896)scale(0.1 -0.1)">
       <use xlink:href="#DejaVuSans-48"/>
      </g>
     </g>
    </g>
    <g id="xtick_19">
     <g id="line2d_27">
      <g>
       <use style="stroke:#000000;stroke-width:0.8;" x="794.804688" xlink:href="#m94d0f5d01f" y="102.851458"/>
      </g>
     </g>
     <g id="text_27">
      <!-- 1 -->
      <g transform="translate(791.623438 117.449896)scale(0.1 -0.1)">
       <use xlink:href="#DejaVuSans-49"/>
      </g>
     </g>
    </g>
    <g id="xtick_20">
     <g id="line2d_28">
      <g>
       <use style="stroke:#000000;stroke-width:0.8;" x="833.554688" xlink:href="#m94d0f5d01f" y="102.851458"/>
      </g>
     </g>
     <g id="text_28">
      <!-- 2 -->
      <g transform="translate(830.373438 117.449896)scale(0.1 -0.1)">
       <use xlink:href="#DejaVuSans-50"/>
      </g>
     </g>
    </g>
    <g id="xtick_21">
     <g id="line2d_29">
      <g>
       <use style="stroke:#000000;stroke-width:0.8;" x="872.304688" xlink:href="#m94d0f5d01f" y="102.851458"/>
      </g>
     </g>
     <g id="text_29">
      <!-- 3 -->
      <g transform="translate(869.123438 117.449896)scale(0.1 -0.1)">
       <use xlink:href="#DejaVuSans-51"/>
      </g>
     </g>
    </g>
   </g>
   <g id="matplotlib.axis_6">
    <g id="ytick_7">
     <g id="line2d_30">
      <g>
       <use style="stroke:#000000;stroke-width:0.8;" x="639.804688" xlink:href="#m6c591adb24" y="94.798125"/>
      </g>
     </g>
     <g id="text_30">
      <!-- −20 -->
      <g transform="translate(611.7 98.597344)scale(0.1 -0.1)">
       <use xlink:href="#DejaVuSans-8722"/>
       <use x="83.789062" xlink:href="#DejaVuSans-50"/>
       <use x="147.412109" xlink:href="#DejaVuSans-48"/>
      </g>
     </g>
    </g>
    <g id="ytick_8">
     <g id="line2d_31">
      <g>
       <use style="stroke:#000000;stroke-width:0.8;" x="639.804688" xlink:href="#m6c591adb24" y="62.584792"/>
      </g>
     </g>
     <g id="text_31">
      <!-- 0 -->
      <g transform="translate(626.442188 66.38401)scale(0.1 -0.1)">
       <use xlink:href="#DejaVuSans-48"/>
      </g>
     </g>
    </g>
    <g id="ytick_9">
     <g id="line2d_32">
      <g>
       <use style="stroke:#000000;stroke-width:0.8;" x="639.804688" xlink:href="#m6c591adb24" y="30.371458"/>
      </g>
     </g>
     <g id="text_32">
      <!-- 20 -->
      <g transform="translate(620.079687 34.170677)scale(0.1 -0.1)">
       <use xlink:href="#DejaVuSans-50"/>
       <use x="63.623047" xlink:href="#DejaVuSans-48"/>
      </g>
     </g>
    </g>
   </g>
   <g id="line2d_33">
    <path clip-path="url(#p619bc1f758)" d="M 639.804688 86.744792 
L 642.153172 84.552507 
L 644.501657 82.464561 
L 646.850142 80.478802 
L 649.198627 78.59308 
L 651.547112 76.805243 
L 653.895597 75.11314 
L 656.244081 73.51462 
L 658.592566 72.00753 
L 660.941051 70.58972 
L 663.289536 69.259039 
L 665.638021 68.013335 
L 667.986506 66.850457 
L 670.334991 65.768253 
L 672.683475 64.764572 
L 675.03196 63.837263 
L 677.380445 62.984175 
L 679.72893 62.203156 
L 682.077415 61.492055 
L 684.4259 60.848721 
L 686.774384 60.271002 
L 689.122869 59.756747 
L 691.471354 59.303804 
L 693.819839 58.910023 
L 696.168324 58.573251 
L 698.516809 58.291339 
L 700.865294 58.062134 
L 703.213778 57.883484 
L 705.562263 57.75324 
L 707.910748 57.669249 
L 710.259233 57.62936 
L 712.607718 57.631421 
L 714.956203 57.673282 
L 717.304688 57.752792 
L 719.653172 57.867798 
L 722.001657 58.016149 
L 724.350142 58.195695 
L 726.698627 58.404283 
L 729.047112 58.639763 
L 731.395597 58.899983 
L 733.744081 59.182792 
L 736.092566 59.486039 
L 738.441051 59.807572 
L 740.789536 60.145239 
L 743.138021 60.49689 
L 745.486506 60.860374 
L 747.834991 61.233538 
L 750.183475 61.614232 
L 752.53196 62.000305 
L 754.880445 62.389604 
L 757.22893 62.779979 
L 759.577415 63.169279 
L 761.9259 63.555351 
L 764.274384 63.936045 
L 766.622869 64.309209 
L 768.971354 64.672693 
L 771.319839 65.024344 
L 773.668324 65.362012 
L 776.016809 65.683545 
L 778.365294 65.986791 
L 780.713778 66.2696 
L 783.062263 66.52982 
L 785.410748 66.7653 
L 787.759233 66.973889 
L 790.107718 67.153434 
L 792.456203 67.301786 
L 794.804688 67.416792 
L 797.153172 67.496301 
L 799.501657 67.538162 
L 801.850142 67.540224 
L 804.198627 67.500335 
L 806.547112 67.416343 
L 808.895597 67.286099 
L 811.244081 67.10745 
L 813.592566 66.878244 
L 815.941051 66.596332 
L 818.289536 66.259561 
L 820.638021 65.865779 
L 822.986506 65.412837 
L 825.334991 64.898582 
L 827.683475 64.320862 
L 830.03196 63.677528 
L 832.380445 62.966427 
L 834.72893 62.185408 
L 837.077415 61.33232 
L 839.4259 60.405011 
L 841.774384 59.401331 
L 844.122869 58.319127 
L 846.471354 57.156248 
L 848.819839 55.910544 
L 851.168324 54.579863 
L 853.516809 53.162053 
L 855.865294 51.654964 
L 858.213778 50.056443 
L 860.562263 48.36434 
L 862.910748 46.576503 
L 865.259233 44.690781 
L 867.607718 42.705023 
L 869.956203 40.617077 
L 872.304688 38.424792 
" style="fill:none;stroke:#6495ed;stroke-linecap:square;stroke-width:1.5;"/>
   </g>
   <g id="patch_13">
    <path d="M 639.804688 102.851458 
L 639.804688 22.318125 
" style="fill:none;stroke:#000000;stroke-linecap:square;stroke-linejoin:miter;stroke-width:0.8;"/>
   </g>
   <g id="patch_14">
    <path d="M 872.304688 102.851458 
L 872.304688 22.318125 
" style="fill:none;stroke:#000000;stroke-linecap:square;stroke-linejoin:miter;stroke-width:0.8;"/>
   </g>
   <g id="patch_15">
    <path d="M 639.804688 102.851458 
L 872.304688 102.851458 
" style="fill:none;stroke:#000000;stroke-linecap:square;stroke-linejoin:miter;stroke-width:0.8;"/>
   </g>
   <g id="patch_16">
    <path d="M 639.804688 22.318125 
L 872.304688 22.318125 
" style="fill:none;stroke:#000000;stroke-linecap:square;stroke-linejoin:miter;stroke-width:0.8;"/>
   </g>
   <g id="text_33">
    <!-- 3 -->
    <g transform="translate(752.237188 16.318125)scale(0.12 -0.12)">
     <use xlink:href="#DejaVuSans-51"/>
    </g>
   </g>
  </g>
  <g id="axes_4">
   <g id="patch_17">
    <path d="M 35.304688 239.758125 
L 267.804688 239.758125 
L 267.804688 159.224792 
L 35.304688 159.224792 
z
" style="fill:#ffffff;"/>
   </g>
   <g id="matplotlib.axis_7">
    <g id="xtick_22">
     <g id="line2d_34">
      <g>
       <use style="stroke:#000000;stroke-width:0.8;" x="35.304688" xlink:href="#m94d0f5d01f" y="239.758125"/>
      </g>
     </g>
     <g id="text_34">
      <!-- −3 -->
      <g transform="translate(27.933594 254.356562)scale(0.1 -0.1)">
       <use xlink:href="#DejaVuSans-8722"/>
       <use x="83.789062" xlink:href="#DejaVuSans-51"/>
      </g>
     </g>
    </g>
    <g id="xtick_23">
     <g id="line2d_35">
      <g>
       <use style="stroke:#000000;stroke-width:0.8;" x="74.054688" xlink:href="#m94d0f5d01f" y="239.758125"/>
      </g>
     </g>
     <g id="text_35">
      <!-- −2 -->
      <g transform="translate(66.683594 254.356562)scale(0.1 -0.1)">
       <use xlink:href="#DejaVuSans-8722"/>
       <use x="83.789062" xlink:href="#DejaVuSans-50"/>
      </g>
     </g>
    </g>
    <g id="xtick_24">
     <g id="line2d_36">
      <g>
       <use style="stroke:#000000;stroke-width:0.8;" x="112.804688" xlink:href="#m94d0f5d01f" y="239.758125"/>
      </g>
     </g>
     <g id="text_36">
      <!-- −1 -->
      <g transform="translate(105.433594 254.356562)scale(0.1 -0.1)">
       <use xlink:href="#DejaVuSans-8722"/>
       <use x="83.789062" xlink:href="#DejaVuSans-49"/>
      </g>
     </g>
    </g>
    <g id="xtick_25">
     <g id="line2d_37">
      <g>
       <use style="stroke:#000000;stroke-width:0.8;" x="151.554688" xlink:href="#m94d0f5d01f" y="239.758125"/>
      </g>
     </g>
     <g id="text_37">
      <!-- 0 -->
      <g transform="translate(148.373437 254.356562)scale(0.1 -0.1)">
       <use xlink:href="#DejaVuSans-48"/>
      </g>
     </g>
    </g>
    <g id="xtick_26">
     <g id="line2d_38">
      <g>
       <use style="stroke:#000000;stroke-width:0.8;" x="190.304688" xlink:href="#m94d0f5d01f" y="239.758125"/>
      </g>
     </g>
     <g id="text_38">
      <!-- 1 -->
      <g transform="translate(187.123437 254.356562)scale(0.1 -0.1)">
       <use xlink:href="#DejaVuSans-49"/>
      </g>
     </g>
    </g>
    <g id="xtick_27">
     <g id="line2d_39">
      <g>
       <use style="stroke:#000000;stroke-width:0.8;" x="229.054688" xlink:href="#m94d0f5d01f" y="239.758125"/>
      </g>
     </g>
     <g id="text_39">
      <!-- 2 -->
      <g transform="translate(225.873437 254.356562)scale(0.1 -0.1)">
       <use xlink:href="#DejaVuSans-50"/>
      </g>
     </g>
    </g>
    <g id="xtick_28">
     <g id="line2d_40">
      <g>
       <use style="stroke:#000000;stroke-width:0.8;" x="267.804688" xlink:href="#m94d0f5d01f" y="239.758125"/>
      </g>
     </g>
     <g id="text_40">
      <!-- 3 -->
      <g transform="translate(264.623438 254.356562)scale(0.1 -0.1)">
       <use xlink:href="#DejaVuSans-51"/>
      </g>
     </g>
    </g>
   </g>
   <g id="matplotlib.axis_8">
    <g id="ytick_10">
     <g id="line2d_41">
      <g>
       <use style="stroke:#000000;stroke-width:0.8;" x="35.304688" xlink:href="#m6c591adb24" y="231.704792"/>
      </g>
     </g>
     <g id="text_41">
      <!-- −20 -->
      <g transform="translate(7.2 235.50401)scale(0.1 -0.1)">
       <use xlink:href="#DejaVuSans-8722"/>
       <use x="83.789062" xlink:href="#DejaVuSans-50"/>
       <use x="147.412109" xlink:href="#DejaVuSans-48"/>
      </g>
     </g>
    </g>
    <g id="ytick_11">
     <g id="line2d_42">
      <g>
       <use style="stroke:#000000;stroke-width:0.8;" x="35.304688" xlink:href="#m6c591adb24" y="199.491458"/>
      </g>
     </g>
     <g id="text_42">
      <!-- 0 -->
      <g transform="translate(21.942188 203.290677)scale(0.1 -0.1)">
       <use xlink:href="#DejaVuSans-48"/>
      </g>
     </g>
    </g>
    <g id="ytick_12">
     <g id="line2d_43">
      <g>
       <use style="stroke:#000000;stroke-width:0.8;" x="35.304688" xlink:href="#m6c591adb24" y="167.278125"/>
      </g>
     </g>
     <g id="text_43">
      <!-- 20 -->
      <g transform="translate(15.579688 171.077344)scale(0.1 -0.1)">
       <use xlink:href="#DejaVuSans-50"/>
       <use x="63.623047" xlink:href="#DejaVuSans-48"/>
      </g>
     </g>
    </g>
   </g>
   <g id="line2d_44">
    <path clip-path="url(#p5c7bad7231)" d="M 35.304688 199.491458 
L 37.653172 197.787254 
L 40.001657 196.187389 
L 42.350142 194.689711 
L 44.698627 193.29207 
L 47.047112 191.992314 
L 49.395597 190.788292 
L 51.744081 189.677852 
L 54.092566 188.658843 
L 56.441051 187.729114 
L 58.789536 186.886514 
L 61.138021 186.12889 
L 63.486506 185.454093 
L 65.834991 184.85997 
L 68.183475 184.34437 
L 70.53196 183.905142 
L 72.880445 183.540135 
L 75.22893 183.247197 
L 77.577415 183.024177 
L 79.9259 182.868923 
L 82.274384 182.779285 
L 84.622869 182.75311 
L 86.971354 182.788248 
L 89.319839 182.882548 
L 91.668324 183.033858 
L 94.016809 183.240026 
L 96.365294 183.498901 
L 98.713778 183.808333 
L 101.062263 184.166169 
L 103.410748 184.570259 
L 105.759233 185.018451 
L 108.107718 185.508593 
L 110.456203 186.038535 
L 112.804688 186.606125 
L 115.153172 187.209212 
L 117.501657 187.845644 
L 119.850142 188.513271 
L 122.198627 189.20994 
L 124.547112 189.9335 
L 126.895597 190.681801 
L 129.244081 191.452691 
L 131.592566 192.244019 
L 133.941051 193.053632 
L 136.289536 193.879381 
L 138.638021 194.719113 
L 140.986506 195.570677 
L 143.334991 196.431922 
L 145.683475 197.300697 
L 148.03196 198.17485 
L 150.380445 199.05223 
L 152.72893 199.930686 
L 155.077415 200.808066 
L 157.4259 201.68222 
L 159.774384 202.550994 
L 162.122869 203.41224 
L 164.471354 204.263804 
L 166.819839 205.103536 
L 169.168324 205.929285 
L 171.516809 206.738898 
L 173.865294 207.530225 
L 176.213778 208.301115 
L 178.562263 209.049416 
L 180.910748 209.772977 
L 183.259233 210.469646 
L 185.607718 211.137273 
L 187.956203 211.773705 
L 190.304688 212.376792 
L 192.653172 212.944382 
L 195.001657 213.474324 
L 197.350142 213.964466 
L 199.698627 214.412658 
L 202.047112 214.816748 
L 204.395597 215.174584 
L 206.744081 215.484015 
L 209.092566 215.742891 
L 211.441051 215.949059 
L 213.789536 216.100369 
L 216.138021 216.194668 
L 218.486506 216.229806 
L 220.834991 216.203632 
L 223.183475 216.113994 
L 225.53196 215.95874 
L 227.880445 215.73572 
L 230.22893 215.442782 
L 232.577415 215.077774 
L 234.9259 214.638546 
L 237.274384 214.122947 
L 239.622869 213.528824 
L 241.971354 212.854026 
L 244.319839 212.096403 
L 246.668324 211.253802 
L 249.016809 210.324073 
L 251.365294 209.305065 
L 253.713778 208.194625 
L 256.062263 206.990603 
L 258.410748 205.690847 
L 260.759233 204.293205 
L 263.107718 202.795528 
L 265.456203 201.195663 
L 267.804688 199.491458 
" style="fill:none;stroke:#6495ed;stroke-linecap:square;stroke-width:1.5;"/>
   </g>
   <g id="patch_18">
    <path d="M 35.304688 239.758125 
L 35.304688 159.224792 
" style="fill:none;stroke:#000000;stroke-linecap:square;stroke-linejoin:miter;stroke-width:0.8;"/>
   </g>
   <g id="patch_19">
    <path d="M 267.804688 239.758125 
L 267.804688 159.224792 
" style="fill:none;stroke:#000000;stroke-linecap:square;stroke-linejoin:miter;stroke-width:0.8;"/>
   </g>
   <g id="patch_20">
    <path d="M 35.304688 239.758125 
L 267.804688 239.758125 
" style="fill:none;stroke:#000000;stroke-linecap:square;stroke-linejoin:miter;stroke-width:0.8;"/>
   </g>
   <g id="patch_21">
    <path d="M 35.304688 159.224792 
L 267.804688 159.224792 
" style="fill:none;stroke:#000000;stroke-linecap:square;stroke-linejoin:miter;stroke-width:0.8;"/>
   </g>
   <g id="text_44">
    <!-- 4 -->
    <g transform="translate(147.737188 153.224792)scale(0.12 -0.12)">
     <defs>
      <path d="M 37.796875 64.3125 
L 12.890625 25.390625 
L 37.796875 25.390625 
z
M 35.203125 72.90625 
L 47.609375 72.90625 
L 47.609375 25.390625 
L 58.015625 25.390625 
L 58.015625 17.1875 
L 47.609375 17.1875 
L 47.609375 0 
L 37.796875 0 
L 37.796875 17.1875 
L 4.890625 17.1875 
L 4.890625 26.703125 
z
" id="DejaVuSans-52"/>
     </defs>
     <use xlink:href="#DejaVuSans-52"/>
    </g>
   </g>
  </g>
  <g id="axes_5">
   <g id="patch_22">
    <path d="M 337.554688 239.758125 
L 570.054688 239.758125 
L 570.054688 159.224792 
L 337.554688 159.224792 
z
" style="fill:#ffffff;"/>
   </g>
   <g id="matplotlib.axis_9">
    <g id="xtick_29">
     <g id="line2d_45">
      <g>
       <use style="stroke:#000000;stroke-width:0.8;" x="337.554688" xlink:href="#m94d0f5d01f" y="239.758125"/>
      </g>
     </g>
     <g id="text_45">
      <!-- −3 -->
      <g transform="translate(330.183594 254.356562)scale(0.1 -0.1)">
       <use xlink:href="#DejaVuSans-8722"/>
       <use x="83.789062" xlink:href="#DejaVuSans-51"/>
      </g>
     </g>
    </g>
    <g id="xtick_30">
     <g id="line2d_46">
      <g>
       <use style="stroke:#000000;stroke-width:0.8;" x="376.304688" xlink:href="#m94d0f5d01f" y="239.758125"/>
      </g>
     </g>
     <g id="text_46">
      <!-- −2 -->
      <g transform="translate(368.933594 254.356562)scale(0.1 -0.1)">
       <use xlink:href="#DejaVuSans-8722"/>
       <use x="83.789062" xlink:href="#DejaVuSans-50"/>
      </g>
     </g>
    </g>
    <g id="xtick_31">
     <g id="line2d_47">
      <g>
       <use style="stroke:#000000;stroke-width:0.8;" x="415.054688" xlink:href="#m94d0f5d01f" y="239.758125"/>
      </g>
     </g>
     <g id="text_47">
      <!-- −1 -->
      <g transform="translate(407.683594 254.356562)scale(0.1 -0.1)">
       <use xlink:href="#DejaVuSans-8722"/>
       <use x="83.789062" xlink:href="#DejaVuSans-49"/>
      </g>
     </g>
    </g>
    <g id="xtick_32">
     <g id="line2d_48">
      <g>
       <use style="stroke:#000000;stroke-width:0.8;" x="453.804688" xlink:href="#m94d0f5d01f" y="239.758125"/>
      </g>
     </g>
     <g id="text_48">
      <!-- 0 -->
      <g transform="translate(450.623438 254.356562)scale(0.1 -0.1)">
       <use xlink:href="#DejaVuSans-48"/>
      </g>
     </g>
    </g>
    <g id="xtick_33">
     <g id="line2d_49">
      <g>
       <use style="stroke:#000000;stroke-width:0.8;" x="492.554688" xlink:href="#m94d0f5d01f" y="239.758125"/>
      </g>
     </g>
     <g id="text_49">
      <!-- 1 -->
      <g transform="translate(489.373438 254.356562)scale(0.1 -0.1)">
       <use xlink:href="#DejaVuSans-49"/>
      </g>
     </g>
    </g>
    <g id="xtick_34">
     <g id="line2d_50">
      <g>
       <use style="stroke:#000000;stroke-width:0.8;" x="531.304688" xlink:href="#m94d0f5d01f" y="239.758125"/>
      </g>
     </g>
     <g id="text_50">
      <!-- 2 -->
      <g transform="translate(528.123438 254.356562)scale(0.1 -0.1)">
       <use xlink:href="#DejaVuSans-50"/>
      </g>
     </g>
    </g>
    <g id="xtick_35">
     <g id="line2d_51">
      <g>
       <use style="stroke:#000000;stroke-width:0.8;" x="570.054688" xlink:href="#m94d0f5d01f" y="239.758125"/>
      </g>
     </g>
     <g id="text_51">
      <!-- 3 -->
      <g transform="translate(566.873438 254.356562)scale(0.1 -0.1)">
       <use xlink:href="#DejaVuSans-51"/>
      </g>
     </g>
    </g>
   </g>
   <g id="matplotlib.axis_10">
    <g id="ytick_13">
     <g id="line2d_52">
      <g>
       <use style="stroke:#000000;stroke-width:0.8;" x="337.554688" xlink:href="#m6c591adb24" y="231.704792"/>
      </g>
     </g>
     <g id="text_52">
      <!-- −20 -->
      <g transform="translate(309.45 235.50401)scale(0.1 -0.1)">
       <use xlink:href="#DejaVuSans-8722"/>
       <use x="83.789062" xlink:href="#DejaVuSans-50"/>
       <use x="147.412109" xlink:href="#DejaVuSans-48"/>
      </g>
     </g>
    </g>
    <g id="ytick_14">
     <g id="line2d_53">
      <g>
       <use style="stroke:#000000;stroke-width:0.8;" x="337.554688" xlink:href="#m6c591adb24" y="199.491458"/>
      </g>
     </g>
     <g id="text_53">
      <!-- 0 -->
      <g transform="translate(324.192187 203.290677)scale(0.1 -0.1)">
       <use xlink:href="#DejaVuSans-48"/>
      </g>
     </g>
    </g>
    <g id="ytick_15">
     <g id="line2d_54">
      <g>
       <use style="stroke:#000000;stroke-width:0.8;" x="337.554688" xlink:href="#m6c591adb24" y="167.278125"/>
      </g>
     </g>
     <g id="text_54">
      <!-- 20 -->
      <g transform="translate(317.829687 171.077344)scale(0.1 -0.1)">
       <use xlink:href="#DejaVuSans-50"/>
       <use x="63.623047" xlink:href="#DejaVuSans-48"/>
      </g>
     </g>
    </g>
   </g>
   <g id="line2d_55">
    <path clip-path="url(#p098668111b)" d="M 337.554688 165.667458 
L 339.903172 164.646567 
L 342.251657 163.730015 
L 344.600142 162.915651 
L 346.948627 162.201323 
L 349.297112 161.58488 
L 351.645597 161.064171 
L 353.994081 160.637044 
L 356.342566 160.301348 
L 358.691051 160.054932 
L 361.039536 159.895645 
L 363.388021 159.821335 
L 365.736506 159.829851 
L 368.084991 159.919041 
L 370.433475 160.086754 
L 372.78196 160.330839 
L 375.130445 160.649145 
L 377.47893 161.03952 
L 379.827415 161.499813 
L 382.1759 162.027872 
L 384.524384 162.621547 
L 386.872869 163.278686 
L 389.221354 163.997137 
L 391.569839 164.77475 
L 393.918324 165.609373 
L 396.266809 166.498854 
L 398.615294 167.441043 
L 400.963778 168.433787 
L 403.312263 169.474937 
L 405.660748 170.56234 
L 408.009233 171.693845 
L 410.357718 172.8673 
L 412.706203 174.080555 
L 415.054688 175.331458 
L 417.403172 176.617858 
L 419.751657 177.937604 
L 422.100142 179.288543 
L 424.448627 180.668526 
L 426.797112 182.075399 
L 429.145597 183.507014 
L 431.494081 184.961216 
L 433.842566 186.435857 
L 436.191051 187.928784 
L 438.539536 189.437845 
L 440.888021 190.96089 
L 443.236506 192.495768 
L 445.584991 194.040326 
L 447.933475 195.592414 
L 450.28196 197.149881 
L 452.630445 198.710574 
L 454.97893 200.272343 
L 457.327415 201.833036 
L 459.6759 203.390502 
L 462.024384 204.94259 
L 464.372869 206.487149 
L 466.721354 208.022026 
L 469.069839 209.545071 
L 471.418324 211.054133 
L 473.766809 212.54706 
L 476.115294 214.0217 
L 478.463778 215.475903 
L 480.812263 216.907517 
L 483.160748 218.314391 
L 485.509233 219.694373 
L 487.857718 221.045313 
L 490.206203 222.365058 
L 492.554688 223.651458 
L 494.903172 224.902361 
L 497.251657 226.115617 
L 499.600142 227.289072 
L 501.948627 228.420577 
L 504.297112 229.50798 
L 506.645597 230.549129 
L 508.994081 231.541874 
L 511.342566 232.484063 
L 513.691051 233.373544 
L 516.039536 234.208167 
L 518.388021 234.985779 
L 520.736506 235.704231 
L 523.084991 236.361369 
L 525.433475 236.955044 
L 527.78196 237.483104 
L 530.130445 237.943397 
L 532.47893 238.333772 
L 534.827415 238.652077 
L 537.1759 238.896163 
L 539.524384 239.063876 
L 541.872869 239.153066 
L 544.221354 239.161582 
L 546.569839 239.087272 
L 548.918324 238.927984 
L 551.266809 238.681568 
L 553.615294 238.345873 
L 555.963778 237.918746 
L 558.312263 237.398037 
L 560.660748 236.781594 
L 563.009233 236.067266 
L 565.357718 235.252902 
L 567.706203 234.336349 
L 570.054688 233.315458 
" style="fill:none;stroke:#6495ed;stroke-linecap:square;stroke-width:1.5;"/>
   </g>
   <g id="patch_23">
    <path d="M 337.554688 239.758125 
L 337.554688 159.224792 
" style="fill:none;stroke:#000000;stroke-linecap:square;stroke-linejoin:miter;stroke-width:0.8;"/>
   </g>
   <g id="patch_24">
    <path d="M 570.054688 239.758125 
L 570.054688 159.224792 
" style="fill:none;stroke:#000000;stroke-linecap:square;stroke-linejoin:miter;stroke-width:0.8;"/>
   </g>
   <g id="patch_25">
    <path d="M 337.554688 239.758125 
L 570.054688 239.758125 
" style="fill:none;stroke:#000000;stroke-linecap:square;stroke-linejoin:miter;stroke-width:0.8;"/>
   </g>
   <g id="patch_26">
    <path d="M 337.554688 159.224792 
L 570.054688 159.224792 
" style="fill:none;stroke:#000000;stroke-linecap:square;stroke-linejoin:miter;stroke-width:0.8;"/>
   </g>
   <g id="text_55">
    <!-- 5 -->
    <g transform="translate(449.987188 153.224792)scale(0.12 -0.12)">
     <defs>
      <path d="M 10.796875 72.90625 
L 49.515625 72.90625 
L 49.515625 64.59375 
L 19.828125 64.59375 
L 19.828125 46.734375 
Q 21.96875 47.46875 24.109375 47.828125 
Q 26.265625 48.1875 28.421875 48.1875 
Q 40.625 48.1875 47.75 41.5 
Q 54.890625 34.8125 54.890625 23.390625 
Q 54.890625 11.625 47.5625 5.09375 
Q 40.234375 -1.421875 26.90625 -1.421875 
Q 22.3125 -1.421875 17.546875 -0.640625 
Q 12.796875 0.140625 7.71875 1.703125 
L 7.71875 11.625 
Q 12.109375 9.234375 16.796875 8.0625 
Q 21.484375 6.890625 26.703125 6.890625 
Q 35.15625 6.890625 40.078125 11.328125 
Q 45.015625 15.765625 45.015625 23.390625 
Q 45.015625 31 40.078125 35.4375 
Q 35.15625 39.890625 26.703125 39.890625 
Q 22.75 39.890625 18.8125 39.015625 
Q 14.890625 38.140625 10.796875 36.28125 
z
" id="DejaVuSans-53"/>
     </defs>
     <use xlink:href="#DejaVuSans-53"/>
    </g>
   </g>
  </g>
  <g id="axes_6">
   <g id="patch_27">
    <path d="M 639.804688 239.758125 
L 872.304688 239.758125 
L 872.304688 159.224792 
L 639.804688 159.224792 
z
" style="fill:#ffffff;"/>
   </g>
   <g id="matplotlib.axis_11">
    <g id="xtick_36">
     <g id="line2d_56">
      <g>
       <use style="stroke:#000000;stroke-width:0.8;" x="639.804688" xlink:href="#m94d0f5d01f" y="239.758125"/>
      </g>
     </g>
     <g id="text_56">
      <!-- −3 -->
      <g transform="translate(632.433594 254.356562)scale(0.1 -0.1)">
       <use xlink:href="#DejaVuSans-8722"/>
       <use x="83.789062" xlink:href="#DejaVuSans-51"/>
      </g>
     </g>
    </g>
    <g id="xtick_37">
     <g id="line2d_57">
      <g>
       <use style="stroke:#000000;stroke-width:0.8;" x="678.554688" xlink:href="#m94d0f5d01f" y="239.758125"/>
      </g>
     </g>
     <g id="text_57">
      <!-- −2 -->
      <g transform="translate(671.183594 254.356562)scale(0.1 -0.1)">
       <use xlink:href="#DejaVuSans-8722"/>
       <use x="83.789062" xlink:href="#DejaVuSans-50"/>
      </g>
     </g>
    </g>
    <g id="xtick_38">
     <g id="line2d_58">
      <g>
       <use style="stroke:#000000;stroke-width:0.8;" x="717.304688" xlink:href="#m94d0f5d01f" y="239.758125"/>
      </g>
     </g>
     <g id="text_58">
      <!-- −1 -->
      <g transform="translate(709.933594 254.356562)scale(0.1 -0.1)">
       <use xlink:href="#DejaVuSans-8722"/>
       <use x="83.789062" xlink:href="#DejaVuSans-49"/>
      </g>
     </g>
    </g>
    <g id="xtick_39">
     <g id="line2d_59">
      <g>
       <use style="stroke:#000000;stroke-width:0.8;" x="756.054688" xlink:href="#m94d0f5d01f" y="239.758125"/>
      </g>
     </g>
     <g id="text_59">
      <!-- 0 -->
      <g transform="translate(752.873438 254.356562)scale(0.1 -0.1)">
       <use xlink:href="#DejaVuSans-48"/>
      </g>
     </g>
    </g>
    <g id="xtick_40">
     <g id="line2d_60">
      <g>
       <use style="stroke:#000000;stroke-width:0.8;" x="794.804688" xlink:href="#m94d0f5d01f" y="239.758125"/>
      </g>
     </g>
     <g id="text_60">
      <!-- 1 -->
      <g transform="translate(791.623438 254.356562)scale(0.1 -0.1)">
       <use xlink:href="#DejaVuSans-49"/>
      </g>
     </g>
    </g>
    <g id="xtick_41">
     <g id="line2d_61">
      <g>
       <use style="stroke:#000000;stroke-width:0.8;" x="833.554688" xlink:href="#m94d0f5d01f" y="239.758125"/>
      </g>
     </g>
     <g id="text_61">
      <!-- 2 -->
      <g transform="translate(830.373438 254.356562)scale(0.1 -0.1)">
       <use xlink:href="#DejaVuSans-50"/>
      </g>
     </g>
    </g>
    <g id="xtick_42">
     <g id="line2d_62">
      <g>
       <use style="stroke:#000000;stroke-width:0.8;" x="872.304688" xlink:href="#m94d0f5d01f" y="239.758125"/>
      </g>
     </g>
     <g id="text_62">
      <!-- 3 -->
      <g transform="translate(869.123438 254.356562)scale(0.1 -0.1)">
       <use xlink:href="#DejaVuSans-51"/>
      </g>
     </g>
    </g>
   </g>
   <g id="matplotlib.axis_12">
    <g id="ytick_16">
     <g id="line2d_63">
      <g>
       <use style="stroke:#000000;stroke-width:0.8;" x="639.804688" xlink:href="#m6c591adb24" y="231.704792"/>
      </g>
     </g>
     <g id="text_63">
      <!-- −20 -->
      <g transform="translate(611.7 235.50401)scale(0.1 -0.1)">
       <use xlink:href="#DejaVuSans-8722"/>
       <use x="83.789062" xlink:href="#DejaVuSans-50"/>
       <use x="147.412109" xlink:href="#DejaVuSans-48"/>
      </g>
     </g>
    </g>
    <g id="ytick_17">
     <g id="line2d_64">
      <g>
       <use style="stroke:#000000;stroke-width:0.8;" x="639.804688" xlink:href="#m6c591adb24" y="199.491458"/>
      </g>
     </g>
     <g id="text_64">
      <!-- 0 -->
      <g transform="translate(626.442188 203.290677)scale(0.1 -0.1)">
       <use xlink:href="#DejaVuSans-48"/>
      </g>
     </g>
    </g>
    <g id="ytick_18">
     <g id="line2d_65">
      <g>
       <use style="stroke:#000000;stroke-width:0.8;" x="639.804688" xlink:href="#m6c591adb24" y="167.278125"/>
      </g>
     </g>
     <g id="text_65">
      <!-- 20 -->
      <g transform="translate(620.079687 171.077344)scale(0.1 -0.1)">
       <use xlink:href="#DejaVuSans-50"/>
       <use x="63.623047" xlink:href="#DejaVuSans-48"/>
      </g>
     </g>
    </g>
   </g>
   <g id="line2d_66">
    <path clip-path="url(#p8adf30bfda)" d="M 639.804688 122.179458 
L 642.153172 122.037113 
L 644.501657 121.999106 
L 646.850142 122.063287 
L 649.198627 122.227504 
L 651.547112 122.489607 
L 653.895597 122.847443 
L 656.244081 123.298862 
L 658.592566 123.841712 
L 660.941051 124.473842 
L 663.289536 125.1931 
L 665.638021 125.997335 
L 667.986506 126.884396 
L 670.334991 127.852132 
L 672.683475 128.89839 
L 675.03196 130.021021 
L 677.380445 131.217872 
L 679.72893 132.486793 
L 682.077415 133.825631 
L 684.4259 135.232236 
L 686.774384 136.704456 
L 689.122869 138.240141 
L 691.471354 139.837137 
L 693.819839 141.493295 
L 696.168324 143.206464 
L 698.516809 144.97449 
L 700.865294 146.795225 
L 703.213778 148.666515 
L 705.562263 150.58621 
L 707.910748 152.552158 
L 710.259233 154.562208 
L 712.607718 156.614209 
L 714.956203 158.70601 
L 717.304688 160.835458 
L 719.653172 163.000404 
L 722.001657 165.198695 
L 724.350142 167.42818 
L 726.698627 169.686707 
L 729.047112 171.972127 
L 731.395597 174.282286 
L 733.744081 176.615035 
L 736.092566 178.968221 
L 738.441051 181.339693 
L 740.789536 183.7273 
L 743.138021 186.12889 
L 745.486506 188.542313 
L 747.834991 190.965417 
L 750.183475 193.396051 
L 752.53196 195.832062 
L 754.880445 198.271301 
L 757.22893 200.711616 
L 759.577415 203.150854 
L 761.9259 205.586866 
L 764.274384 208.017499 
L 766.622869 210.440603 
L 768.971354 212.854026 
L 771.319839 215.255617 
L 773.668324 217.643224 
L 776.016809 220.014696 
L 778.365294 222.367882 
L 780.713778 224.70063 
L 783.062263 227.01079 
L 785.410748 229.296209 
L 787.759233 231.554737 
L 790.107718 233.784222 
L 792.456203 235.982513 
L 794.804688 238.147458 
L 797.153172 240.276907 
L 799.501657 242.368707 
L 801.850142 244.420709 
L 804.198627 246.430759 
L 806.547112 248.396707 
L 808.895597 250.316402 
L 811.244081 252.187692 
L 813.592566 254.008426 
L 815.941051 255.776453 
L 818.289536 257.489621 
L 820.638021 259.145779 
L 822.986506 260.742776 
L 825.334991 262.27846 
L 827.683475 263.750681 
L 829.162033 264.63625 
" style="fill:none;stroke:#6495ed;stroke-linecap:square;stroke-width:1.5;"/>
   </g>
   <g id="patch_28">
    <path d="M 639.804688 239.758125 
L 639.804688 159.224792 
" style="fill:none;stroke:#000000;stroke-linecap:square;stroke-linejoin:miter;stroke-width:0.8;"/>
   </g>
   <g id="patch_29">
    <path d="M 872.304688 239.758125 
L 872.304688 159.224792 
" style="fill:none;stroke:#000000;stroke-linecap:square;stroke-linejoin:miter;stroke-width:0.8;"/>
   </g>
   <g id="patch_30">
    <path d="M 639.804688 239.758125 
L 872.304688 239.758125 
" style="fill:none;stroke:#000000;stroke-linecap:square;stroke-linejoin:miter;stroke-width:0.8;"/>
   </g>
   <g id="patch_31">
    <path d="M 639.804688 159.224792 
L 872.304688 159.224792 
" style="fill:none;stroke:#000000;stroke-linecap:square;stroke-linejoin:miter;stroke-width:0.8;"/>
   </g>
   <g id="text_66">
    <!-- 6 -->
    <g transform="translate(752.237188 153.224792)scale(0.12 -0.12)">
     <defs>
      <path d="M 33.015625 40.375 
Q 26.375 40.375 22.484375 35.828125 
Q 18.609375 31.296875 18.609375 23.390625 
Q 18.609375 15.53125 22.484375 10.953125 
Q 26.375 6.390625 33.015625 6.390625 
Q 39.65625 6.390625 43.53125 10.953125 
Q 47.40625 15.53125 47.40625 23.390625 
Q 47.40625 31.296875 43.53125 35.828125 
Q 39.65625 40.375 33.015625 40.375 
z
M 52.59375 71.296875 
L 52.59375 62.3125 
Q 48.875 64.0625 45.09375 64.984375 
Q 41.3125 65.921875 37.59375 65.921875 
Q 27.828125 65.921875 22.671875 59.328125 
Q 17.53125 52.734375 16.796875 39.40625 
Q 19.671875 43.65625 24.015625 45.921875 
Q 28.375 48.1875 33.59375 48.1875 
Q 44.578125 48.1875 50.953125 41.515625 
Q 57.328125 34.859375 57.328125 23.390625 
Q 57.328125 12.15625 50.6875 5.359375 
Q 44.046875 -1.421875 33.015625 -1.421875 
Q 20.359375 -1.421875 13.671875 8.265625 
Q 6.984375 17.96875 6.984375 36.375 
Q 6.984375 53.65625 15.1875 63.9375 
Q 23.390625 74.21875 37.203125 74.21875 
Q 40.921875 74.21875 44.703125 73.484375 
Q 48.484375 72.75 52.59375 71.296875 
z
" id="DejaVuSans-54"/>
     </defs>
     <use xlink:href="#DejaVuSans-54"/>
    </g>
   </g>
  </g>
 </g>
 <defs>
  <clipPath id="p391787582d">
   <rect height="80.533333" width="232.5" x="35.304688" y="22.318125"/>
  </clipPath>
  <clipPath id="p13eb0c700e">
   <rect height="80.533333" width="232.5" x="337.554688" y="22.318125"/>
  </clipPath>
  <clipPath id="p619bc1f758">
   <rect height="80.533333" width="232.5" x="639.804688" y="22.318125"/>
  </clipPath>
  <clipPath id="p5c7bad7231">
   <rect height="80.533333" width="232.5" x="35.304688" y="159.224792"/>
  </clipPath>
  <clipPath id="p098668111b">
   <rect height="80.533333" width="232.5" x="337.554688" y="159.224792"/>
  </clipPath>
  <clipPath id="p8adf30bfda">
   <rect height="80.533333" width="232.5" x="639.804688" y="159.224792"/>
  </clipPath>
 </defs>
</svg>
